<?xml version="1.0" encoding="UTF-8"?><svg version="1.1" width="960px" height="960px" viewBox="0 0 960.0 960.0" xmlns="http://www.w3.org/2000/svg" xmlns:xlink="http://www.w3.org/1999/xlink"><defs><clipPath id="i0"><path d="M960,0 L960,960 L0,960 L0,0 L960,0 Z"></path></clipPath><clipPath id="i1"><path d="M165.977742,0.0888147967 L704.312722,32.1942305 C716.243962,32.9057901 727.525591,37.8678835 736.113235,46.1813176 L769.706029,78.7014676 C774.874569,83.704972 778.598131,90.0097129 780.484528,96.951641 L788.387969,126.038361 L816.275741,126.038761 C836.441055,126.044161 854.606977,138.159177 862.386049,156.734946 L862.61859,157.29982 C882.100705,205.501252 898.163943,258.515165 910.8481,316.338133 L911.924162,321.264888 C923.541842,374.686039 935.810273,438.508662 948.743342,512.775726 L950.854435,524.95703 C954.445744,545.781799 944.556537,566.612923 926.132892,577.011504 L889.635969,597.577361 L897.684202,644.744926 C898.528836,649.694835 898.622752,654.742234 897.964121,659.717271 L897.853872,660.502177 L880.492735,777.370955 C878.62648,789.933896 870.904886,800.863953 859.68769,806.820875 L679.241188,902.647469 C672.94732,905.989844 666.01169,907.948217 658.899172,908.391324 L134.795135,941.042745 C107.378075,942.750814 83.7176448,922.02042 81.8072448,894.616714 L77.7221902,836.018707 C77.1330972,827.568472 78.7005125,819.107096 82.2773539,811.428574 L99.1289688,775.250361 L55.3689688,461.003361 L54.6221879,460.867956 C33.417017,456.84732 16.5392099,439.312126 14.2293994,416.8712 L14.1514124,416.048017 L0.186539893,254.735955 C-1.09775295,239.900737 4.29702383,225.26505 14.9025121,214.812456 L20.3399688,209.452361 L16.5848396,182.483214 C14.7865013,169.569103 18.1047164,156.472007 25.816369,145.978514 L26.1869085,145.480803 L111.912436,31.8111148 C112.743884,30.7086371 113.631864,29.6499531 114.572807,28.6393151 L126.406497,15.9291173 C136.572987,5.00960737 151.084646,-0.799385051 165.977742,0.0888147967 Z M814.923,785.302 L291.8016,811.170394 C291.183669,811.822567 290.474474,812.394979 289.687786,812.866993 L143.792,900.405 L656.412013,868.468723 C657.705198,868.388158 658.969146,868.057136 660.134002,867.495381 L660.480417,867.319952 L814.923,785.302 Z M155.263,43.635 L143.848499,55.8961276 L58.1229721,169.565816 C56.5278595,171.680891 55.8371817,174.342479 56.2025583,176.966298 L63.4705853,229.160509 C62.2659284,228.931286 60.9985802,228.921326 59.7210182,229.166224 C57.7795908,229.538379 55.9920142,230.477583 54.5841115,231.865189 L42.9806824,243.301337 C40.8595848,245.391856 39.7806294,248.318993 40.037488,251.286037 L54.0023605,412.598099 C54.4786948,418.100367 59.3253093,422.174691 64.827577,421.698357 L65.2181382,421.656804 C65.7375477,421.591202 66.2512057,421.484888 66.754352,421.338747 L89.3189688,414.784361 L139.969545,778.508364 C140.235404,780.417536 139.943814,782.362859 139.129871,784.110176 L118.536377,828.318903 C117.821009,829.854608 117.507526,831.546883 117.625344,833.23693 L121.609,890.39 L275.340969,798.150361 L293.939288,672.161175 C294.061888,671.330652 294.079334,670.488553 293.991628,669.654739 L293.939013,669.238614 L283.071359,595.714021 C282.988725,595.154966 282.938213,594.596011 282.918839,594.03946 C282.67192,593.200628 282.532031,592.314729 282.515014,591.397746 C282.444462,587.465687 284.652526,584.022345 287.923649,582.329105 C288.338906,581.95756 288.777746,581.607737 289.238858,581.281059 L339.887812,545.398384 L339.467008,541.303806 L338.6174,533.129437 C331.056977,461.055738 322.024497,392.512605 311.520821,327.50098 L310.924702,323.824848 C300.782535,261.508795 289.903534,206.263269 278.294028,158.101656 L277.432969,154.548361 L237.019487,195.1468 C235.414599,196.758975 233.386588,197.879784 231.173643,198.382541 L230.781252,198.464821 C224.273094,199.716431 217.982558,195.455157 216.730948,188.946998 L199.058029,97.0508527 C198.731656,95.3537705 197.971044,93.7702358 196.850369,92.4546769 L155.263,43.635 Z M847.948,591.079 L666.877,594.384 L669.124832,607.866913 C669.324299,609.063716 669.445765,610.272219 669.48846,611.48478 C670.032629,626.939175 657.945502,639.908574 642.491107,640.452743 L538.660303,644.108757 C523.519604,644.64188 510.357516,633.802712 507.97721,618.840789 L504.558,597.346 L304.07,601.005 L313.724052,666.314192 C314.123009,669.013317 314.151745,671.753271 313.810254,674.458294 L313.724876,675.081875 L296.627,790.905 L842.049,763.936 L858.288055,654.62458 C858.423975,653.709615 858.432196,652.780857 858.313004,651.864847 L858.254121,651.47313 L847.948,591.079 Z M390.607934,718.79195 C390.626278,719.183295 390.606249,719.575495 390.548133,719.962935 L386.362869,747.864692 C385.938045,750.69685 383.570893,752.833973 380.710192,752.968069 L328.930365,755.395248 C325.620291,755.550408 322.811164,752.992845 322.656004,749.682771 C322.63766,749.291426 322.657689,748.899226 322.715805,748.511786 L326.901069,720.610029 C327.325892,717.777871 329.693044,715.640748 332.553745,715.506652 L384.333573,713.079473 C387.643647,712.924313 390.452774,715.481876 390.607934,718.79195 Z M834.605834,698.794032 C834.624915,699.188369 834.605029,699.583627 834.546464,699.974058 L830.361746,727.872182 C829.937427,730.700974 827.575207,732.836881 824.718111,732.975128 L774.941075,735.383694 C771.631239,735.543847 768.818257,732.990525 768.658103,729.680689 C768.639022,729.286352 768.658909,728.891094 768.717473,728.500663 L772.902192,700.602539 C773.326511,697.773747 775.688731,695.63784 778.545827,695.499593 L828.322863,693.091027 C831.632699,692.930874 834.445681,695.484196 834.605834,698.794032 Z M646.663,594.753 L524.75,596.978 L527.728816,615.698488 C528.522251,620.685796 532.909614,624.298852 537.956514,624.121144 L641.787318,620.46513 C646.202859,620.309653 649.656324,616.60411 649.500847,612.188569 C649.488648,611.842123 649.453944,611.496836 649.396953,611.154893 L646.663,594.753 Z M894.344,549.01 L357.254419,555.317681 C355.832871,557.807287 353.870005,560.002651 351.450518,561.717202 L324.761,580.624 L855.429,570.94 L894.344,549.01 Z M297.957,154.331 L298.636151,157.164552 C309.88914,204.3498 320.437525,258.055345 330.286138,318.289795 L330.664964,320.612048 C341.693296,388.372927 351.121982,459.932952 358.952175,535.295023 L908.943619,528.83741 C909.634854,528.829292 910.310532,528.891506 910.963845,529.017401 L908.955983,517.454516 C896.274371,444.760886 884.254815,382.288728 872.897214,330.038518 L871.777097,324.908823 C859.558211,269.206875 844.14359,218.333609 825.533233,172.289025 C824.731141,170.306607 823.339939,168.683521 821.609855,167.588598 L297.957,154.331 Z M370.581599,226.871689 L659.615001,231.971114 C663.740031,232.043872 667.287356,234.912038 668.222194,238.930401 L716.25846,445.412462 C717.384742,450.253741 714.373142,455.091405 709.531863,456.217686 C708.90359,456.363848 708.261425,456.442043 707.616435,456.450922 L410.920216,460.536237 C406.541992,460.595645 402.755714,457.496172 401.950008,453.1923 L361.576558,237.527764 C360.661933,232.642075 363.881117,227.939992 368.766806,227.025367 C369.365032,226.913376 369.973075,226.862356 370.581599,226.871689 Z M179.248,40.95 L212.075157,79.4852572 C215.437181,83.4319338 217.719016,88.182538 218.698134,93.2737846 L233.514969,170.318361 L263.25531,140.443335 C264.311896,139.380356 265.458241,138.461004 266.670094,137.685328 C268.496163,135.286908 271.379375,133.744304 274.60514,133.73732 L274.885052,133.740564 L752.315,145.827 L741.884315,107.440852 L708.291521,74.9207024 C706.573992,73.2580156 704.317667,72.2655969 701.931418,72.123285 L179.248,40.95 Z M679.418131,87.3971539 L679.634276,87.4041554 L701.343111,88.6102017 C702.817058,88.6920877 704.209086,89.3144777 705.252931,90.3583232 L712.131969,97.2373605 C713.055904,98.161296 713.542556,99.4350377 713.470076,100.739668 C713.329377,103.272256 711.162249,105.211265 708.629661,105.070566 L686.920827,103.864519 C685.446879,103.782633 684.054852,103.160243 683.011006,102.116398 L676.131969,95.2373605 C675.208033,94.313425 674.721382,93.0396833 674.793861,91.735053 C674.930541,89.2748246 676.979507,87.3747411 679.418131,87.3971539 Z M224.725973,56.6301335 L253.00178,58.5580294 C254.67791,58.672311 256.229349,59.4840852 257.278849,60.7959613 L263.631969,68.7373605 C264.512488,69.8380091 264.946829,71.2295722 264.848729,72.6356721 C264.632908,75.7291159 261.950218,78.0618895 258.856774,77.8460679 L231.150759,75.9130901 C229.539973,75.8007097 228.042472,75.0438344 226.996713,73.81353 L220.131969,65.7373605 C219.19713,64.6375505 218.728891,63.2160696 218.827079,61.7759778 C219.035028,58.7260574 221.676053,56.4221844 224.725973,56.6301335 Z"></path></clipPath></defs><g clip-path="url(#i0)"><g transform="translate(6.368031183605581 15.26263949985804)"><g clip-path="url(#i1)"><polygon points="2.77555756e-17,0 951.584139,0 951.584139,941.141148 2.77555756e-17,941.141148 2.77555756e-17,0" stroke="none" fill="#000000"></polygon></g></g></g></svg>