<?xml version="1.0" encoding="UTF-8"?><svg version="1.1" width="960px" height="960px" viewBox="0 0 960.0 960.0" xmlns="http://www.w3.org/2000/svg" xmlns:xlink="http://www.w3.org/1999/xlink"><defs><clipPath id="i0"><path d="M960,0 L960,960 L0,960 L0,0 L960,0 Z"></path></clipPath><clipPath id="i1"><path d="M167.419761,0.207846038 L515.758941,32.0467749 C527.121504,33.0853369 537.787093,37.9788915 545.98495,45.914985 L579.706029,78.5593235 C584.874569,83.5628279 588.598131,89.8675688 590.484528,96.8094968 L598.387969,125.896447 L626.275741,125.896617 C646.441055,125.902017 664.606977,138.017032 672.386049,156.592802 L672.61859,157.157676 C692.100705,205.359108 708.163943,258.373021 720.8481,316.195988 L721.924162,321.122743 C733.541842,374.543895 745.810273,438.366518 758.743342,512.633582 L760.854435,524.814886 C764.445744,545.639655 754.556537,566.470779 736.132892,576.86936 L699.635969,597.435447 L707.684202,644.602781 C708.528836,649.55269 708.622752,654.60009 707.964121,659.575127 L707.853872,660.360033 L690.492735,777.228811 C688.62648,789.791752 680.904886,800.721809 669.68769,806.678731 L489.084693,902.588432 C483.29622,905.662416 476.959861,907.568374 470.436095,908.197874 L136.464694,940.423924 C136.023486,940.466498 135.581732,940.503203 135.139548,940.534029 C107.592169,942.454445 83.7038005,921.679686 81.7833845,894.132307 L77.7221902,835.876562 C77.1330972,827.426327 78.7005125,818.964952 82.2773539,811.28643 L99.1289688,775.108447 L55.3689688,460.861447 L54.6221879,460.725812 C33.417017,456.705176 16.5392099,439.169982 14.2293994,416.729056 L14.1514124,415.905873 L0.186539893,254.593811 C-1.09775295,239.758593 4.29702383,225.122906 14.9025121,214.670312 L20.3409688,209.310447 L16.5848396,182.34107 C14.7865013,169.426959 18.1047164,156.329862 25.816369,145.83637 L26.1869085,145.338659 L111.912436,31.6689707 C112.743884,30.566493 113.631864,29.5078089 114.572807,28.497171 L126.274012,15.9292715 C136.817805,4.6045116 152.010733,-1.20057127 167.419761,0.207846038 Z M622.771,786.302 L291.888583,810.935268 C291.250518,811.626104 290.511646,812.230531 289.687786,812.724849 L145.244,899.39 L466.594202,868.382804 C467.76848,868.269494 468.912398,867.949397 469.973398,867.438324 L470.323921,867.260915 L622.771,786.302 Z M155.263,43.493 L143.848499,55.7539835 L58.1229721,169.423672 C56.5278595,171.538747 55.8371817,174.200335 56.2025583,176.824154 L63.4705853,229.018365 C62.2659284,228.789142 60.9985802,228.779182 59.7210182,229.02408 C57.7795908,229.396235 55.9920142,230.335439 54.5841115,231.723045 L42.9806824,243.159193 C40.8595848,245.249712 39.7806294,248.176849 40.037488,251.143893 L54.0023605,412.455955 C54.4786948,417.958223 59.3253093,422.032547 64.827577,421.556213 L65.2181382,421.514659 C65.7375477,421.449058 66.2512057,421.342743 66.754352,421.196603 L89.3189688,414.642216 L139.969545,778.36622 C140.235404,780.275392 139.943814,782.220715 139.129871,783.968032 L118.536377,828.176759 C117.821009,829.712464 117.507526,831.404739 117.625344,833.094786 L121.609,890.248 L275.340969,798.008447 L293.939288,672.019031 C294.061888,671.188508 294.079334,670.346408 293.991628,669.512595 L293.939013,669.09647 L283.071359,595.571876 C282.988923,595.014161 282.938455,594.456543 282.918979,593.901312 C282.678684,593.086973 282.539196,592.228032 282.514978,591.338892 C282.412292,587.379296 284.624185,583.896188 287.920166,582.188674 C288.336813,581.817085 288.776646,581.466372 289.238858,581.138914 L339.887812,545.25624 L339.467008,541.161662 L338.6174,532.987293 C331.056977,460.913593 322.024497,392.370461 311.520821,327.358835 L310.924702,323.682704 C300.782535,261.366651 289.903534,206.121125 278.294028,157.959512 L277.432969,154.406447 L237.019487,195.004656 C235.414599,196.61683 233.386588,197.73764 231.173643,198.240397 L230.781252,198.322677 C224.273094,199.574287 217.982558,195.313013 216.730948,188.804854 L199.058029,96.9087085 C198.731656,95.2116264 197.971044,93.6280916 196.850369,92.3125327 L155.263,43.493 Z M658.02,591.359 L582.735,593.36 L585.124832,607.693999 C585.324299,608.890803 585.445765,610.099306 585.48846,611.311866 C586.032629,626.766262 573.945502,639.735661 558.491107,640.279829 L454.660303,643.935844 C439.519604,644.468967 426.357516,633.629798 423.97721,618.667875 L420.637,597.67 L304.056,600.769 L313.724052,666.172048 C314.123009,668.871173 314.151745,671.611127 313.810254,674.31615 L313.724876,674.939731 L296.662,790.524 L652.008,764.07 L668.288055,654.482436 C668.423975,653.567471 668.432196,652.638713 668.313004,651.722703 L668.254121,651.330985 L658.02,591.359 Z M390.607934,718.649806 C390.626278,719.041151 390.606249,719.433351 390.548133,719.82079 L386.362869,747.722548 C385.938045,750.554706 383.570893,752.691829 380.710192,752.825925 L328.930365,755.253104 C325.620291,755.408264 322.811164,752.8507 322.656004,749.540627 C322.63766,749.149282 322.657689,748.757082 322.715805,748.369642 L326.901069,720.467884 C327.325892,717.635727 329.693044,715.498603 332.553745,715.364508 L384.333573,712.937329 C387.643647,712.782169 390.452774,715.339732 390.607934,718.649806 Z M644.605834,704.651888 C644.624915,705.046225 644.605029,705.441483 644.546464,705.831914 L640.361746,733.730038 C639.937427,736.55883 637.575207,738.694737 634.718111,738.832984 L584.941075,741.24155 C581.631239,741.401703 578.818257,738.848381 578.658103,735.538545 C578.639022,735.144208 578.658909,734.74895 578.717473,734.358519 L582.902192,706.460395 C583.326511,703.631603 585.688731,701.495696 588.545827,701.357449 L638.322863,698.948883 C641.632699,698.788729 644.445681,701.342052 644.605834,704.651888 Z M562.549,593.897 L440.802,597.134 L443.728816,615.525574 C444.522251,620.512882 448.909614,624.125938 453.956514,623.948231 L557.787318,620.292216 C562.202859,620.136739 565.656324,616.431197 565.500847,612.015655 C565.488648,611.66921 565.453944,611.323923 565.396953,610.981979 L562.549,593.897 Z M703.588,549.295 L357.27422,555.140778 C355.851121,557.64471 353.881259,559.852532 351.450518,561.575058 L325.158,580.201 L664.765,571.172 L703.588,549.295 Z M298.037,154.523 L298.636151,157.022408 C309.88914,204.207656 320.437525,257.9132 330.286138,318.147651 L330.664964,320.469904 C341.691199,388.217897 351.118396,459.763592 358.947708,535.109885 L720.984833,528.997918 L719.778106,522.035053 C706.793631,447.320777 694.5,383.274551 682.897214,329.896374 L681.777097,324.766679 C669.558211,269.06473 654.14359,218.191465 635.533233,172.146881 C634.005191,168.370232 630.339092,165.897706 626.265029,165.896615 L298.037,154.523 Z M357.603524,210.7515 L615.629573,215.815359 C619.747811,215.896153 623.285617,218.762418 624.21895,222.774314 L672.262345,429.287013 C673.388626,434.128292 670.377026,438.965956 665.535747,440.092238 C664.91187,440.237377 664.274281,440.3155 663.633818,440.325278 L397.931591,444.382751 C393.548363,444.448606 389.754528,441.347697 388.947884,437.038812 L348.580668,221.407575 C347.666044,216.521886 350.885227,211.819803 355.770916,210.905178 C356.374995,210.792091 356.989069,210.741177 357.603524,210.7515 Z M179.846,41.51 L212.075157,79.343113 C215.437181,83.2897896 217.719016,88.0403939 218.698134,93.1316404 L233.514969,170.176447 L263.25531,140.301191 C264.311604,139.238505 265.457608,138.319367 266.66909,137.543826 C268.524963,135.106681 271.469587,133.55697 274.745268,133.595782 L275.025107,133.602947 L562.101,144.897 L551.884315,107.298708 L518.163236,74.6543698 C516.523665,73.0671511 514.390547,72.0884402 512.118035,71.8807278 L179.846,41.51 Z M489.418131,85.2550098 L489.634276,85.2620112 L511.343111,86.4680576 C512.817058,86.5499435 514.209086,87.1723335 515.252931,88.216179 L522.131969,95.0952163 C523.055904,96.0191518 523.542556,97.2928935 523.470076,98.5975238 C523.329377,101.130112 521.162249,103.069121 518.629661,102.928421 L496.920827,101.722375 C495.446879,101.640489 494.054852,101.018099 493.011006,99.9742537 L486.131969,93.0952163 C485.208033,92.1712809 484.721382,90.8975391 484.793861,89.5929089 C484.926521,87.2050401 486.860633,85.3448511 489.204008,85.2579867 L489.418131,85.2550098 Z M224.725973,56.4879894 L253.00178,58.4158853 C254.67791,58.5301669 256.229349,59.341941 257.278849,60.6538172 L263.631969,68.5952163 C264.512488,69.6958649 264.946829,71.087428 264.848729,72.493528 C264.632908,75.5869717 261.950218,77.9197453 258.856774,77.7039237 L231.150759,75.7709459 C229.539973,75.6585655 228.042472,74.9016903 226.996713,73.6713858 L220.131969,65.5952163 C219.19713,64.4954063 218.728891,63.0739254 218.827079,61.6338337 C219.035028,58.5839132 221.676053,56.2800403 224.725973,56.4879894 Z"></path></clipPath></defs><g clip-path="url(#i0)"><g transform="translate(90.36803118360558 15.43555305567287)"><g clip-path="url(#i1)"><polygon points="0,1.77635684e-15 761.584139,1.77635684e-15 761.584139,940.657138 0,940.657138 0,1.77635684e-15" stroke="none" fill="#000000"></polygon></g></g></g></svg>