<?xml version="1.0" encoding="UTF-8" standalone="no"?>
<svg
   xmlns:dc="http://purl.org/dc/elements/1.1/"
   xmlns:cc="http://creativecommons.org/ns#"
   xmlns:rdf="http://www.w3.org/1999/02/22-rdf-syntax-ns#"
   xmlns:svg="http://www.w3.org/2000/svg"
   xmlns="http://www.w3.org/2000/svg"
   xmlns:sodipodi="http://sodipodi.sourceforge.net/DTD/sodipodi-0.dtd"
   xmlns:inkscape="http://www.inkscape.org/namespaces/inkscape"
   data-name="Layer 1"
   viewBox="0 0 64 80"
   x="0px"
   y="0px"
   version="1.1"
   id="svg70"
   sodipodi:docname="icon.svg"
   inkscape:version="1.0.1 (3bc2e813f5, 2020-09-07)">
  <metadata
     id="metadata76">
    <rdf:RDF>
      <cc:Work
         rdf:about="">
        <dc:format>image/svg+xml</dc:format>
        <dc:type
           rdf:resource="http://purl.org/dc/dcmitype/StillImage" />
      </cc:Work>
    </rdf:RDF>
  </metadata>
  <defs
     id="defs74" />
  <sodipodi:namedview
     pagecolor="#ffffff"
     bordercolor="#666666"
     borderopacity="1"
     objecttolerance="10"
     gridtolerance="10"
     guidetolerance="10"
     inkscape:pageopacity="0"
     inkscape:pageshadow="2"
     inkscape:window-width="1656"
     inkscape:window-height="943"
     id="namedview72"
     showgrid="false"
     inkscape:zoom="10.625"
     inkscape:cx="32"
     inkscape:cy="66.352941"
     inkscape:window-x="0"
     inkscape:window-y="0"
     inkscape:window-maximized="0"
     inkscape:current-layer="svg70" />
  <title
     id="title44">Smarthome</title>
  <path
     d="M57,9.1V4a1,1,0,0,0-1-1H8A1,1,0,0,0,7,4V9.1A5.009,5.009,0,0,0,3,14V50A11.013,11.013,0,0,0,14,61H50A11.013,11.013,0,0,0,61,50V14A5.009,5.009,0,0,0,57,9.1ZM9,5H55V35H45V30a1,1,0,0,0-1-1H20a1,1,0,0,0-1,1v5H9ZM37,35V31h2v4Zm-4,0V31h2v4Zm-4,0V31h2v4Zm-4,0V31h2v4Zm-4,0V31h2v4Zm20-4h2v4H41ZM5,50V14a3,3,0,0,1,2-2.816V36a1,1,0,0,0,1,1h5V58.941A9.01,9.01,0,0,1,5,50Zm10,9V37H49V59Zm44-9a9.01,9.01,0,0,1-8,8.941V37h5a1,1,0,0,0,1-1V11.184A3,3,0,0,1,59,14Z"
     id="path46" />
  <path
     d="M50,19a1,1,0,0,0,1-1V10a1,1,0,0,0-1-1H14a1,1,0,0,0-1,1v8a1,1,0,0,0,1,1Zm-1-2H45V11h4Zm-6,0H39V11h4Zm-6,0H33V11h4Zm-6,0H27V11h4Zm-6,0H21V11h4ZM15,11h4v6H15Z"
     id="path48" />
  <rect
     x="14"
     y="23"
     width="36"
     height="2"
     id="rect50" />
  <path
     d="M36,45H33V40a1,1,0,0,0-1.929-.371l-4,10A1,1,0,0,0,28,51h3v5a1,1,0,0,0,.811.982A1.019,1.019,0,0,0,32,57a1,1,0,0,0,.928-.629l4-10A1,1,0,0,0,36,45Zm-3,5.808V50a1,1,0,0,0-1-1H29.477L31,45.192V46a1,1,0,0,0,1,1h2.523Z"
     id="path52" />
  <rect
     x="40"
     y="41"
     width="6"
     height="2"
     id="rect54" />
  <rect
     x="40"
     y="47"
     width="6"
     height="2"
     id="rect56" />
  <rect
     x="40"
     y="53"
     width="6"
     height="2"
     id="rect58" />
  <rect
     x="18"
     y="41"
     width="6"
     height="2"
     id="rect60" />
  <rect
     x="18"
     y="47"
     width="6"
     height="2"
     id="rect62" />
  <rect
     x="18"
     y="53"
     width="6"
     height="2"
     id="rect64" />
</svg>
