<?xml version="1.0" encoding="UTF-8"?><svg version="1.1" width="960px" height="960px" viewBox="0 0 960.0 960.0" xmlns="http://www.w3.org/2000/svg" xmlns:xlink="http://www.w3.org/1999/xlink"><defs><clipPath id="i0"><path d="M960,0 L960,960 L0,960 L0,0 L960,0 Z"></path></clipPath><clipPath id="i1"><path d="M789.554469,59.5791206 L944.086355,359.245484 L944.724938,360.573673 C962.034206,396.960606 961.974458,429.828975 947.252266,455.987496 C935.848284,476.250193 915.697983,490.865111 898.163973,493.557138 L897.895486,493.595948 L178.246892,634.394365 C151.419276,639.645523 124.899325,624.019998 116.491711,598.008432 L3.19922579,247.509806 C-1.81563377,231.995085 -0.910041418,215.173187 5.74145111,200.286514 L16.5074857,176.188948 L14.2009902,168.498703 C13.2310914,165.265707 12.4998583,161.966338 12.0129852,158.627208 L11.8742597,157.624303 C6.92987294,119.838779 33.5528752,85.1993416 71.3383996,80.2549548 L677.518559,0.933859534 C723.490436,-5.08198276 768.299089,18.3730427 789.554469,59.5791206 Z M682.708677,40.5957137 L76.5283151,119.916835 C60.6474425,121.994911 49.4580648,136.553515 51.5361404,152.434388 C51.7386102,153.981683 52.0656391,155.510113 52.5140416,157.004788 L59.0929349,178.934432 L58.92,179.32 L146.882197,443.43652 L183.322186,552.580994 L184.184008,555.104894 C189.640511,569.915403 189.004601,583.408956 183.178769,592.67228 L891.408363,454.107397 L892.076478,454.022925 C893.390087,453.856843 896.75915,452.394971 900.320949,449.854494 C905.069552,446.467519 909.307526,441.852668 912.393814,436.368925 C920.495613,421.973577 920.525442,402.748397 908.562511,377.669845 L908.295486,377.115948 L754.004832,77.9155128 C740.478738,51.6935736 711.963711,36.7674238 682.708677,40.5957137 Z M46.842,206.35 L42.2617995,216.604116 C39.6415146,222.468563 39.2847661,229.095371 41.2603168,235.207231 L152.002932,577.819402 C155.196623,583.891932 160.030327,585.908886 163.577427,584.315261 C165.303128,583.539946 166.692304,581.852491 167.441543,579.070665 C168.523587,575.053172 168.074641,569.4551 165.610665,562.552536 L165.310258,561.716954 C165.001604,560.829253 164.15957,558.336992 162.781383,554.231866 L132.530393,463.627065 L46.842,206.35 Z M731.800577,395.561948 C732.15488,396.270555 732.4071,397.025745 732.549731,397.805046 C733.384488,402.365965 730.363837,406.740025 725.802918,407.574782 L370.687703,472.569344 C364.442518,473.712362 358.308282,470.085065 356.300577,464.061948 C356.156939,463.631034 356.044067,463.190468 355.962813,462.743571 C355.014453,457.527592 358.474042,452.530409 363.690021,451.582049 L715.800577,387.561948 C722.319095,386.376763 728.837614,389.636022 731.800577,395.561948 Z M658.936129,224.442744 L722.465652,363.854752 C722.81074,364.612029 723.05995,365.409421 723.2075,366.228435 C724.186714,371.663781 720.574305,376.863809 715.138959,377.843022 L353.084341,443.069572 C348.296913,443.932059 343.58334,441.224364 341.916615,436.654311 L286.982885,286.029568 C286.75648,285.40878 286.592163,284.76708 286.492344,284.113878 C285.658056,278.654409 289.407505,273.55231 294.866975,272.718021 L648.3258,218.704206 C652.74802,218.028424 657.081077,220.371934 658.936129,224.442744 Z"></path></clipPath></defs><g clip-path="url(#i0)"><g transform="translate(1.0 162.0)"><g clip-path="url(#i1)"><polygon points="0,0 958.01824,0 958.01824,635.406917 0,635.406917 0,0" stroke="none" fill="#000000"></polygon></g></g></g></svg>