<?xml version="1.0" encoding="UTF-8"?><svg version="1.1" width="960px" height="960px" viewBox="0 0 960.0 960.0" xmlns="http://www.w3.org/2000/svg" xmlns:xlink="http://www.w3.org/1999/xlink"><defs><clipPath id="i0"><path d="M960,0 L960,960 L0,960 L0,0 L960,0 Z"></path></clipPath><clipPath id="i1"><path d="M352.47925,3.18553374 C449.164856,9.65393691 522.834848,23.4456449 573.908168,44.9594063 C628.819656,68.0899304 659.756865,101.337385 663.085296,144.606995 C663.112326,144.958379 663.130063,145.310416 663.138489,145.662736 L678.915206,805.327772 L679.424842,805.436261 C682.100237,805.9933 685.601577,806.644806 689.902125,807.383779 L693.109503,807.926397 C711.043121,810.916314 723.157282,827.878263 720.167235,845.811834 C719.211173,851.546061 716.75368,856.924853 713.044638,861.401283 L708.265233,867.16953 C697.519629,880.138362 680.431588,886.021134 663.979946,882.415295 L620.117583,872.801627 C608.590157,870.275067 598.58904,863.549364 591.901947,854.165127 L591.677206,853.845772 L590.956482,854.080188 C567.025128,861.795502 545.054981,867.043329 525.005682,869.800697 L523.780573,869.966403 C500.121518,873.112554 465.968332,874.501037 421.030772,874.200402 L415.569206,874.155772 L413.96684,874.398968 C398.145419,876.780702 384.968566,878.311973 374.351068,878.986275 L372.919083,879.072912 L371.040534,879.17295 C363.79848,879.529038 354.613566,879.653274 343.440787,879.550612 L339.910206,879.510772 L338.219477,894.052483 C337.076061,903.885867 333.595044,913.298827 328.072074,921.50599 L327.654028,922.119254 L318.889062,934.813341 C305.415418,954.326895 280.812522,962.803592 258.178707,955.730525 L255.521528,954.900157 C234.948798,948.471178 223.483021,926.581969 229.911999,906.009239 C230.536132,904.012014 231.31988,902.068219 232.255663,900.196654 L238.666187,887.375605 C239.638175,885.431628 240.144206,883.288046 240.144206,881.114614 L240.144206,863.415772 L239.390005,863.092088 C227.181302,857.842022 217.489559,853.353638 210.240243,849.581072 L209.221233,849.046999 L208.239873,848.525063 C199.249674,843.708414 187.659403,836.546316 173.327929,826.979845 L171.431206,825.710772 L167.986467,824.173957 C143.426626,813.174441 124.96829,804.037144 112.418999,796.625684 L111.925937,796.333569 C99.5155951,788.95761 84.6781801,778.355451 67.2790837,764.478729 L66.4752064,763.835772 L29.2130728,756.64604 C10.6556461,753.064783 -1.9494138,735.771675 0.248504662,717.064942 L0.319648435,716.497651 C2.66898617,698.877618 16.9283225,685.374492 34.439647,683.810736 L34.4932064,683.805772 L45.1485453,99.7243492 C45.5908143,78.4954377 53.9563317,59.9416522 69.6423656,45.1567858 L70.1679439,44.6653543 C84.9218873,30.9797999 105.720152,20.7736908 132.444737,13.5786103 C182.663998,0.0580399598 255.804883,-3.28211756 352.47925,3.18553374 Z M72.3818785,711.360276 L72.2488966,711.648457 C70.0221404,716.380372 65.995495,720.098851 61.0433206,721.918091 L60.8022064,722.003772 L78.9339317,725.503258 C81.9968489,726.094347 84.8767491,727.393231 87.3449077,729.293436 L87.7311619,729.59845 C105.227001,743.767322 119.778467,754.342699 131.22788,761.267929 L132.362475,761.948282 C143.546,768.595094 161.351145,777.401529 185.56811,788.218919 L189.248717,789.856591 C190.318961,790.330975 191.345487,790.89841 192.316472,791.552361 C207.436913,801.735856 219.237635,809.07144 227.532758,813.481506 L228.329665,813.902044 C229.155903,814.334932 230.028983,814.782984 230.948724,815.246092 L231.884014,815.714214 C239.649126,819.578127 250.522367,824.443674 264.40615,830.250801 L267.805716,831.666585 C275.275036,834.764192 280.144206,842.05477 280.144206,850.140925 L280.144206,881.114614 C280.144206,889.497849 278.192371,897.765955 274.443275,905.264148 L268.544206,917.061772 L270.109706,917.551326 C275.916341,919.365899 282.218953,917.263761 285.778288,912.360964 L285.973186,912.085713 L294.738152,899.391625 C296.783976,896.428707 298.07131,893.008945 298.487182,889.432448 L302.278059,856.830908 C303.474687,846.539903 312.332062,838.866347 322.688566,839.148335 C333.157702,839.43339 342.315985,839.578109 350.139507,839.585127 L351.59077,839.58483 C359.008086,839.574964 365.171358,839.436022 370.058852,839.170397 L370.648352,839.137416 C379.945889,838.602571 392.158511,837.21489 407.194234,834.96735 L411.09443,834.374822 C412.171757,834.208597 413.260871,834.130728 414.350889,834.141993 C461.062262,834.62474 495.893875,833.322624 518.50784,830.315448 L519.586311,830.169505 C540.848779,827.242578 565.210285,820.968719 592.600379,811.307824 L595.396249,810.313683 C605.648763,806.639033 616.956764,811.843375 620.833961,822.021019 L623.638678,829.3834 C624.479169,831.58969 626.375203,833.223649 628.68142,833.729121 L656.961206,839.927772 L656.760147,839.818741 C651.027409,836.650658 646.249392,832.04196 642.531103,826.286114 L642.205771,825.775276 C640.29173,822.726584 639.235992,819.217818 639.149924,815.619115 L638.250006,777.953786 C619.644299,791.676981 591.29355,802.198445 553.132674,809.941231 C507.339754,819.232548 461.520063,821.733153 415.704897,817.438279 L413.642206,817.239772 L412.72988,817.418768 C376.471542,824.447016 335.588543,824.369623 290.088269,817.255952 L288.569884,817.016223 C241.8922,809.574853 203.864006,794.387659 174.631009,771.334614 L174.009206,770.840772 L169.436548,768.945093 C142.721778,757.806963 123.107302,748.521207 110.453581,740.987398 L109.999249,740.715855 C97.8801437,733.444392 85.3523857,723.656373 72.3818785,711.360276 Z M84.8680207,115.399542 L74.515,682.968 L81.7002064,692.548772 L82.0439421,692.887774 C95.225859,705.85428 107.732962,715.921999 119.521374,723.10184 L120.289164,723.565996 L121.124562,724.063251 C133.415561,731.322315 153.436461,740.706194 181.031802,752.103005 L184.299512,753.44831 L185.436189,754.368477 C211.972975,775.850637 247.348819,790.192195 291.718529,797.265628 C336.595555,804.419936 376.402716,804.419936 411.148162,797.34216 L412.639413,797.038386 L414.153519,797.191991 C459.148612,801.756711 504.138085,799.474636 549.155739,790.34062 C592.775877,781.490157 621.513294,769.096775 635.242789,753.974279 L635.654241,753.515187 C636.247467,752.844583 636.910615,752.272526 637.623047,751.800278 L623.322197,153.790038 C609.210773,170.186839 580.518383,182.45777 540.763122,190.536264 C487.955103,201.267152 417.989218,203.875608 344.244098,197.423746 C270.529601,190.974563 202.309461,176.262694 152.389969,156.509151 C121.289608,144.20249 98.1318596,130.366567 84.8680207,115.399542 Z M295.615724,268.197362 C326.149967,274.132618 347.218696,301.011343 344.873018,330.064387 L346.551847,338.747071 C348.030412,346.38639 343.391895,353.822198 336.000991,355.92414 C323.250632,375.321744 298.776203,385.964117 273.672689,381.084488 C250.150656,376.512268 232.24582,359.511397 226.33498,338.662277 L226.042916,338.530831 C220.388418,335.913958 216.495596,330.321774 216.203754,323.871142 C216.164056,322.996798 216.144206,322.086726 216.144206,321.140925 C216.144206,314.039074 219.501652,309.623179 226.216544,307.89324 L226.55509,307.808091 C234.982447,279.577818 264.825907,262.212428 295.615724,268.197362 Z M250.380506,343.623069 C256.191552,352.450067 265.762306,359.172532 277.488869,361.451945 C289.421937,363.771498 301.008688,360.988885 309.758931,354.755783 L250.380506,343.623069 Z M245.176058,315.572787 L325.019648,326.979717 C325.688049,308.725081 311.915796,291.740109 291.799544,287.829906 C270.205707,283.632489 249.745917,296.142518 245.176058,315.572787 Z M193.165372,96.5235934 C157.726319,99.8514643 130.451852,106.39284 114.577055,114.79081 C125.728378,122.566192 140.887469,130.448593 159.748923,137.912221 C207.732853,156.899847 274.087696,171.209459 345.987212,177.499852 C417.927842,183.793841 485.998218,181.256054 536.780406,170.936826 C552.927991,167.655545 566.73375,163.684055 577.986502,159.268657 C533.695147,134.557906 453.153585,112.284471 362.674093,101.174987 C300.496712,93.5405643 241.013812,92.0304307 193.165372,96.5235934 Z M213.600734,41.5990294 C176.946318,45.1432407 148.305374,50.3960172 127.783343,57.2909673 C122.612492,59.0282593 118.038778,60.835419 114.039414,62.7013126 C106.847349,66.3031628 101.094239,70.2690891 96.6732532,74.6032923 C93.9071636,77.8059246 92.4206035,81.096636 92.1286814,84.4333209 C91.6844215,89.5112351 93.9734091,95.1047994 98.8475731,100.959551 C139.843643,74.37463 245.505513,66.6382975 365.111479,81.3240636 C465.612142,93.6639933 554.420027,119.441575 599.018294,148.613942 C607.759632,142.673621 612.587201,136.36091 613.134703,130.10293 C613.605028,124.727093 611.840683,119.274746 607.802321,113.800355 C600.401077,105.572059 590.333649,97.9359424 577.575859,90.9351228 C562.327014,83.0161258 542.126242,75.20987 516.848092,67.6872293 C475.34586,56.3572126 421.553269,48.1410397 355.178945,43.4650438 L349.809163,43.0963171 C296.641599,39.5393322 251.200258,39.0637004 213.600734,41.5990294 Z"></path></clipPath><clipPath id="i2"><path d="M178,0 L282,12 L373,30 L452,53 L488,80 L408,106 L263,113 L177,94 L71,75 L6,40 L0,25 L76,5 L178,0 Z"></path></clipPath><clipPath id="i3"><path d="M440.011851,0 L474.023702,7.03406018 L474.023,19.037 L503.023702,25.0340602 L503.023,36.622 L534.023702,43.0340602 L534.023,55.036 L563.023702,61.0340602 L563.023702,81.1775568 L534.023,87.174 L534.023,91.037 L563.023702,97.0340602 L563.023,108.623 L594.023702,115.03406 L594.023,127.037 L623.023702,133.03406 L623.023702,153.177557 L589.011851,160.211617 L560.011,154.214 L531.011851,160.211617 L502.011,154.214 L473.011851,160.211617 L444.011,154.214 L415.011851,160.211617 L386.011,154.214 L357.011851,160.211617 L328.011,154.214 L299.011851,160.211617 L270.011,154.214 L241.011851,160.211617 L212.011,154.214 L183.011851,160.211617 L149,153.177557 L148.999,141.174 L120,135.177557 L119.999,123.588 L89,117.177557 L88.999,105.174 L60,99.1775568 L60,79.0340602 L89,73.036 L89,69.175 L60,63.1775568 L60,51.588 L29,45.1775568 L28.999,33.174 L0,27.1775568 L0,7.03406018 L34.011851,0 L63.011,5.997 L92.011851,0 L121.011,5.997 L150.011851,0 L179.011,5.997 L208.011851,0 L237.011,5.997 L266.011851,0 L295.011,5.997 L324.011851,0 L353.011,5.997 L382.011851,0 L411.011,5.997 L440.011851,0 Z M241.011,136.214 L217.023,141.174 L217.023,145.038 L241.011851,149.999809 L264.999,145.038 L264.999,141.174 L241.011,136.214 Z M183.01,136.214 L158.999,141.179 L158.999851,145.033809 L183.011851,149.999809 L206.999,145.038 L206.999,141.174 L183.01,136.214 Z M531.012,136.214 L507.023,141.174 L507.023,145.038 L531.011851,149.999809 L554.999,145.038 L554.999,141.174 L531.012,136.214 Z M589.02,136.212 L565.023,141.174 L565.023,145.038 L589.011851,149.999809 L613.022851,145.033809 L613.022851,141.176809 L589.02,136.212 Z M299.01,136.214 L275.023,141.174 L275.023,145.038 L299.011851,149.999809 L322.999,145.038 L322.999,141.174 L299.01,136.214 Z M357.012,136.214 L333.023,141.174 L333.023,145.038 L357.011851,149.999809 L380.999,145.038 L380.999,141.174 L357.012,136.214 Z M415.011,136.214 L391.023,141.175 L391.023,145.038 L415.011851,149.999809 L438.999,145.038 L438.999,141.174 L415.011,136.214 Z M473.01,136.214 L449.023,141.174 L449.023,145.038 L473.011851,149.999809 L496.999,145.038 L496.999,141.174 L473.01,136.214 Z M153.001,118.419 L129.999851,123.176809 L129.999851,127.033809 L154.008,131.998 L177.999,127.037 L177.999,123.588 L153.001,118.419 Z M269.003,118.419 L246.023,123.171 L246.023,127.037 L270.011,131.997 L293.999,127.037 L293.999,123.588 L269.003,118.419 Z M560.011851,118.210809 L536.023,123.171 L536.023,127.037 L560.01,131.997 L584.022,127.032 L584.022851,123.176809 L560.011851,118.210809 Z M211.002,118.419 L188.023,123.171 L188.023,127.037 L212.012,131.997 L235.999,127.037 L235.999,123.588 L211.002,118.419 Z M501.001,118.419 L478.023,123.171 L478.023,127.037 L502.012,131.997 L525.999,127.037 L525.999,123.588 L501.001,118.419 Z M443.001,118.419 L420.023,123.171 L420.023,127.037 L444.012,131.997 L467.999,127.037 L467.999,123.588 L443.001,118.419 Z M327.002,118.418 L304.023,123.171 L304.023,127.036 L328.011,131.997 L351.999,127.037 L351.999,123.588 L327.002,118.418 Z M385.002,118.418 L362.023,123.171 L362.023,127.037 L386.01,131.997 L409.999,127.037 L409.999,123.588 L385.002,118.418 Z M123.011,100.214 L98.999,105.18 L98.999851,109.033809 L123.011851,113.999809 L146.999,109.038 L146.999,105.175 L123.011,100.214 Z M471.01,100.214 L447.023,105.174 L447.023,108.623 L472.015,113.791 L494.999,109.038 L494.999,105.174 L471.01,100.214 Z M355.011,100.214 L331.023,105.174 L331.023,108.623 L356.015,113.791 L378.999,109.038 L378.999,105.174 L355.011,100.214 Z M529.019,100.212 L505.023,105.174 L505.023,108.623 L530.016,113.791 L553.022851,109.033809 L553.022851,105.176809 L529.019,100.212 Z M181.012,100.214 L157.023,105.174 L157.023,108.623 L182.015,113.791 L204.999,109.038 L204.999,105.174 L181.012,100.214 Z M413.012,100.214 L389.023,105.174 L389.023,108.623 L414.016,113.791 L436.999,109.038 L436.999,105.174 L413.012,100.214 Z M297.011,100.214 L273.023,105.175 L273.023,108.623 L298.015,113.791 L320.999,109.038 L320.999,105.175 L297.011,100.214 Z M239.011,100.214 L215.023,105.174 L215.023,108.623 L240.015,113.791 L262.999,109.038 L262.999,105.174 L239.011,100.214 Z M210.011,82.213 L186.023,87.174 L186.023,91.037 L210.011,95.998 L233.999,91.037 L233.999,87.174 L210.011,82.213 Z M94.002,82.212 L69.999851,87.1768085 L69.999851,91.0338085 L94.007,95.998 L117.999,91.037 L117.999,87.174 L94.002,82.212 Z M268.01,82.214 L244.023,87.174 L244.023,91.037 L268.011,95.997 L291.999,91.037 L291.999,87.174 L268.01,82.214 Z M442.011,82.213 L418.023,87.174 L418.023,91.037 L442.011,95.997 L465.999,91.037 L465.999,87.174 L442.011,82.213 Z M384.01,82.214 L360.023,87.174 L360.023,91.037 L384.01,95.997 L408,91.037 L408,87.175 L384.01,82.214 Z M500.011,82.213 L476.023,87.174 L476.023,91.037 L500.012,95.997 L524.022,91.032 L524.022,87.179 L500.011,82.213 Z M326.011,82.213 L302.023,87.174 L302.023,91.036 L326.011,95.997 L349.999,91.036 L349.999,87.174 L326.011,82.213 Z M152.011,82.213 L128.023,87.174 L128.023,91.036 L152.011,95.997 L175.999,91.037 L175.999,87.174 L152.011,82.213 Z M529.019,64.212 L505.023,69.174 L505.023,73.037 L529.015,77.998 L553.022851,73.0338085 L553.022851,69.1768085 L529.019,64.212 Z M297.01,64.214 L273.023,69.174 L273.023,73.037 L297.012,77.997 L321,73.036 L321,69.174 L297.01,64.214 Z M239.011,64.213 L215.023,69.174 L215.023,73.037 L239.012,77.997 L263,73.036 L263,69.174 L239.011,64.213 Z M123.011,64.213 L98.999,69.179 L98.999,73.032 L123.012,77.997 L147,73.036 L147,69.175 L123.011,64.213 Z M181.011,64.214 L157.023,69.174 L157.023,73.037 L181.012,77.997 L205,73.036 L205,69.175 L181.011,64.214 Z M413.012,64.214 L389.023,69.174 L389.023,73.036 L413.011,77.997 L437,73.035 L437,69.174 L413.012,64.214 Z M471.01,64.214 L447.023,69.174 L447.023,73.036 L471.012,77.997 L495,73.036 L495,69.174 L471.01,64.214 Z M355.012,64.214 L331.023,69.174 L331.023,73.037 L355.012,77.997 L379,73.036 L379,69.175 L355.012,64.214 Z M93.002,46.419 L69.999851,51.1768085 L69.999851,55.0338085 L94.007,59.998 L118,55.035 L118,51.588 L93.002,46.419 Z M383.002,46.419 L360.023,51.171 L360.023,55.036 L384.01,59.997 L408,55.036 L408,51.588 L383.002,46.419 Z M441.002,46.419 L418.023,51.171 L418.023,55.036 L442.011,59.997 L466,55.035 L466,51.588 L441.002,46.419 Z M500.011851,46.2108085 L476.023,51.171 L476.023,55.036 L500.012,59.997 L524.022,55.031 L524.022851,51.1768085 L500.011851,46.2108085 Z M325.001,46.419 L302.023,51.171 L302.023,55.036 L326.012,59.997 L350,55.036 L350,51.588 L325.001,46.419 Z M209.002,46.419 L186.023,51.171 L186.023,55.036 L210.011,59.997 L234,55.035 L234,51.588 L209.002,46.419 Z M151.002,46.419 L128.023,51.171 L128.023,55.036 L152.011,59.997 L176,55.035 L176,51.588 L151.002,46.419 Z M267.001,46.419 L244.023,51.171 L244.023,55.036 L268.012,59.997 L292,55.035 L292,51.588 L267.001,46.419 Z M63.011,28.214 L38.999,33.18 L38.999851,37.0338085 L63.011851,41.9998085 L86.999,37.038 L86.999,33.174 L63.011,28.214 Z M121.01,28.214 L97.023,33.174 L97.023,36.623 L122.015,41.791 L144.999,37.038 L144.999,33.174 L121.01,28.214 Z M179.012,28.214 L155.023,33.174 L155.023,36.622 L180.015,41.791 L202.999,37.038 L202.999,33.174 L179.012,28.214 Z M411.01,28.214 L387.023,33.174 L387.023,36.622 L412.015,41.791 L434.999,37.038 L434.999,33.174 L411.01,28.214 Z M469.02,28.212 L445.023,33.174 L445.023,36.622 L470.015,41.791 L493.022851,37.0338085 L493.022851,33.1768085 L469.02,28.212 Z M295.01,28.214 L271.023,33.174 L271.023,36.622 L296.015,41.791 L318.999,37.038 L318.999,33.174 L295.01,28.214 Z M353.011,28.214 L329.023,33.174 L329.023,36.622 L354.015,41.791 L376.999,37.038 L376.999,33.174 L353.011,28.214 Z M237.012,28.214 L213.023,33.174 L213.023,36.623 L238.016,41.791 L260.999,37.038 L260.999,33.174 L237.012,28.214 Z M34.011851,10.2108085 L9.99985103,15.1768085 L9.99985103,19.0338085 L34.007,23.998 L57.999,19.037 L57.999,15.171 L34.011851,10.2108085 Z M440.011851,10.2108085 L416.023,15.171 L416.023,19.037 L440.01,23.997 L464.022,19.032 L464.022851,15.1768085 L440.011851,10.2108085 Z M382.011851,10.2108085 L358.023,15.171 L358.023,19.037 L382.011,23.997 L405.999,19.037 L405.999,15.171 L382.011851,10.2108085 Z M324.011851,10.2108085 L300.023,15.171 L300.023,19.037 L324.012,23.997 L347.999,19.037 L347.999,15.171 L324.011851,10.2108085 Z M266.011851,10.2108085 L242.023,15.171 L242.023,19.037 L266.011,23.997 L289.999,19.037 L289.999,15.171 L266.011851,10.2108085 Z M92.011851,10.2108085 L68.023,15.171 L68.023,19.037 L92.011,23.997 L115.999,19.037 L115.999,15.171 L92.011851,10.2108085 Z M150.011851,10.2108085 L126.023,15.171 L126.023,19.037 L150.012,23.997 L173.999,19.037 L173.999,15.171 L150.011851,10.2108085 Z M208.011851,10.2108085 L184.023,15.171 L184.023,19.037 L208.01,23.997 L231.999,19.037 L231.999,15.171 L208.011851,10.2108085 Z"></path></clipPath></defs><g clip-path="url(#i0)"><g transform="translate(840.6206113645184 1.0) scale(-1.0 1.0)"><g clip-path="url(#i1)"><polygon points="0,-1.77635684e-15 720.620611,-1.77635684e-15 720.620611,958.199408 0,958.199408 0,-1.77635684e-15" stroke="none" fill="#000000"></polygon></g><g transform="translate(106.14420644835809 83.14092544187349)"><g clip-path="url(#i2)"><g transform="translate(-67.86905837939469 -92.98228652693885) rotate(10.0)"><g transform=""><g clip-path="url(#i3)"><polygon points="82.9841795,4.54747351e-13 583.192607,4.54747351e-13 583.192607,160.211617 82.9841795,160.211617 82.9841795,4.54747351e-13" stroke="none" fill="#000000"></polygon></g></g></g></g></g></g></g></svg>