<?xml version="1.0" encoding="UTF-8" standalone="no"?>
<svg
   xmlns:dc="http://purl.org/dc/elements/1.1/"
   xmlns:cc="http://creativecommons.org/ns#"
   xmlns:rdf="http://www.w3.org/1999/02/22-rdf-syntax-ns#"
   xmlns:svg="http://www.w3.org/2000/svg"
   xmlns="http://www.w3.org/2000/svg"
   xmlns:sodipodi="http://sodipodi.sourceforge.net/DTD/sodipodi-0.dtd"
   xmlns:inkscape="http://www.inkscape.org/namespaces/inkscape"
   version="1.1"
   x="0px"
   y="0px"
   viewBox="0 0 100 125"
   id="svg10"
   sodipodi:docname="icon.svg"
   inkscape:version="1.0.1 (3bc2e813f5, 2020-09-07)">
  <metadata
     id="metadata16">
    <rdf:RDF>
      <cc:Work
         rdf:about="">
        <dc:format>image/svg+xml</dc:format>
        <dc:type
           rdf:resource="http://purl.org/dc/dcmitype/StillImage" />
      </cc:Work>
    </rdf:RDF>
  </metadata>
  <defs
     id="defs14" />
  <sodipodi:namedview
     pagecolor="#ffffff"
     bordercolor="#666666"
     borderopacity="1"
     objecttolerance="10"
     gridtolerance="10"
     guidetolerance="10"
     inkscape:pageopacity="0"
     inkscape:pageshadow="2"
     inkscape:window-width="1920"
     inkscape:window-height="1017"
     id="namedview12"
     showgrid="false"
     inkscape:zoom="6.8"
     inkscape:cx="50"
     inkscape:cy="62.5"
     inkscape:window-x="-8"
     inkscape:window-y="-8"
     inkscape:window-maximized="1"
     inkscape:current-layer="svg10" />
  <g
     transform="translate(0,-952.36218)"
     id="g4">
    <path
       style="text-indent:0;text-transform:none;direction:ltr;block-progression:tb;baseline-shift:baseline;color:#000000;enable-background:accumulate;"
       d="m 17.014873,957.36218 a 2.9942814,2.9982179 0 0 0 -2.463798,1.31159 l -4.98997,6.99514 a 2.9942814,2.9982179 0 1 0 4.865221,3.46634 l 4.98997,-6.99514 a 2.9942814,2.9982179 0 0 0 -2.401423,-4.77793 z m 50.897694,0 a 2.9942814,2.9982179 0 0 0 -2.463798,1.31159 l -4.98997,6.99514 a 2.9942814,2.9982179 0 1 0 4.865221,3.46634 l 4.98997,-6.99514 a 2.9942814,2.9982179 0 0 0 -2.401423,-4.77793 z m -30.969001,5.99584 a 2.9942814,2.9982179 0 0 0 -2.463798,1.34281 l -4.1791,5.99584 a 2.9942814,2.9982179 0 1 0 4.927595,3.40389 l 4.1791,-5.99584 a 2.9942814,2.9982179 0 0 0 -2.463797,-4.7467 z m 50.897694,0 a 2.9942814,2.9982179 0 0 0 -2.463798,1.34281 l -4.1791,5.99584 a 2.9942814,2.9982179 0 1 0 4.927596,3.40389 l 4.1791,-5.99584 a 2.9942814,2.9982179 0 0 0 -2.463798,-4.7467 z m -37.95496,2.99791 a 2.9942814,2.9982179 0 0 0 -2.962794,3.06038 l 0,4.15336 c -19.990916,1.45531 -35.927783,17.30348 -35.927785,36.81823 a 2.9942814,2.9982179 0 0 0 5.987964,0 c -1e-6,-4.0609 2.825206,-6.9952 5.987964,-6.9952 3.16276,0 5.987964,2.9343 5.987964,6.9952 a 2.9942814,2.9982179 0 0 0 0.249499,1.1554 2.9942814,2.9982179 0 0 0 0.904432,1.1555 2.9942814,2.9982179 0 0 0 0.249499,0.1873 2.9942814,2.9982179 0 0 0 0.530184,0.2498 2.9942814,2.9982179 0 0 0 0.311873,0.094 2.9942814,2.9982179 0 0 0 0.280686,0.062 2.9942814,2.9982179 0 0 0 0.311873,0.031 2.9942814,2.9982179 0 0 0 1.153931,-0.1561 2.9942814,2.9982179 0 0 0 0.280685,-0.1249 2.9942814,2.9982179 0 0 0 0.966807,-0.7183 2.9942814,2.9982179 0 0 0 0.187124,-0.2186 2.9942814,2.9982179 0 0 0 0.155936,-0.2498 2.9942814,2.9982179 0 0 0 0.12475,-0.2811 2.9942814,2.9982179 0 0 0 0.218311,-0.5621 2.9942814,2.9982179 0 0 0 0.06238,-0.6245 c 0,-4.0609 2.825205,-6.9952 5.987964,-6.9952 3.162759,0 5.987964,2.9343 5.987964,6.9952 l 0,27.9805 c 0,4.9307 4.057736,8.9938 8.981946,8.9938 4.92421,0 8.981946,-4.0631 8.981946,-8.9938 a 2.9942814,2.9982179 0 1 0 -5.987964,0 c 0,1.7127 -1.283528,2.9979 -2.993982,2.9979 -1.710454,0 -2.993982,-1.2852 -2.993982,-2.9979 l 0,-27.9493 a 2.9942814,2.9982179 0 0 0 0,-0.031 c 0,-4.0609 2.825204,-6.9952 5.987964,-6.9952 3.162759,0 5.987964,2.9343 5.987964,6.9952 a 2.9942814,2.9982179 0 0 0 0.155936,0.8743 2.9942814,2.9982179 0 0 0 0.561372,1.0306 2.9942814,2.9982179 0 0 0 0.218311,0.2186 2.9942814,2.9982179 0 0 0 0.218311,0.1874 2.9942814,2.9982179 0 0 0 0.249499,0.1873 2.9942814,2.9982179 0 0 0 0.280686,0.1249 2.9942814,2.9982179 0 0 0 0.249498,0.1249 2.9942814,2.9982179 0 0 0 0.904432,0.1874 2.9942814,2.9982179 0 0 0 1.434617,-0.281 2.9942814,2.9982179 0 0 0 0.280685,-0.1562 2.9942814,2.9982179 0 0 0 0.249499,-0.1561 2.9942814,2.9982179 0 0 0 0.218311,-0.1874 2.9942814,2.9982179 0 0 0 0.218311,-0.2186 2.9942814,2.9982179 0 0 0 0.592559,-1.0305 2.9942814,2.9982179 0 0 0 0.09356,-0.2811 2.9942814,2.9982179 0 0 0 0.06237,-0.6245 c 0,-4.0609 2.825204,-6.9952 5.987964,-6.9952 3.162759,0 5.987965,2.9343 5.987964,6.9952 a 2.9942814,2.9982179 0 0 0 5.987964,0 c -10e-7,-12.12082 -6.145149,-22.83767 -15.593656,-29.57326 l 4.05435,-5.68355 a 2.9942814,2.9982179 0 0 0 -2.401423,-4.77793 2.9942814,2.9982179 0 0 0 -2.463798,1.31159 l -4.335036,6.05829 c -4.603167,-2.32005 -9.743298,-3.75678 -15.188221,-4.15317 l 0,-4.15336 a 2.9942814,2.9982179 0 0 0 -3.02517,-3.06038 z m -25.885469,3.99723 a 2.9942814,2.9982179 0 0 0 -2.463798,1.31159 l -4.98997,6.99514 a 2.9942814,2.9982179 0 1 0 4.865221,3.46634 l 4.98997,-6.99514 a 2.9942814,2.9982179 0 0 0 -2.401423,-4.77793 z m 25.916657,9.05621 c 13.545362,0 25.043716,7.62117 30.126944,18.48716 -1.014384,-0.30454 -2.066385,-0.49965 -3.181106,-0.49965 -3.687969,0 -6.809069,1.86096 -8.981946,4.62182 -2.172878,-2.76086 -5.293977,-4.62182 -8.981946,-4.62182 -3.687969,0 -6.809069,1.86096 -8.981946,4.62182 -2.172878,-2.76086 -5.293977,-4.62182 -8.981946,-4.62182 -3.687969,0 -6.809069,1.86096 -8.981946,4.62182 -2.172878,-2.76086 -5.293977,-4.62182 -8.981947,-4.62182 -1.114721,0 -2.166721,0.19511 -3.181105,0.49965 5.083228,-10.86599 16.581583,-18.48716 30.126944,-18.48716 z"
       fill="#000000"
       fill-opacity="1"
       stroke="none"
       marker="none"
       visibility="visible"
       display="inline"
       overflow="visible"
       id="path2" />
  </g>
</svg>
