<svg height="960" viewBox="0 0 960 960" width="960" xmlns="http://www.w3.org/2000/svg"><g fill="none" fill-rule="evenodd" stroke="#000" stroke-linecap="round" stroke-linejoin="round"><path d="m497.168619 936.753307c116.857209-8.171452 203.883475-124.985483 194.378606-260.911441-9.504868-135.925959-111.941572-239.491449-228.798781-231.319997-116.857208 8.171452-203.883475 124.985484-194.378606 260.911442s111.941573 239.491448 228.798781 231.319996z" stroke-width="40"/><path d="m519.675757 812.490044c25.488947-28.582642 40.472647-72.578556 37.526729-120.622765-4.915771-80.170017-57.894447-141.253619-118.331184-136.434043-60.436738 4.819575-105.445374 73.717253-100.529603 153.887271 2.294779 37.424948 15.063459 70.690572 34.175323 95.034216" stroke-width="30"/><path d="m469.315098 23 83.158811 2.5922356 20.526091 5.6511701-25.088494 109.8061753-13.094514 5.940418c-6.497058 26.689706-12.542917 67.518764-14.755391 104.335159-3.633756 60.467051-3.633756 100.575417 0 193.674842l-83.336284-1.870777c-3.633756-93.099424-3.633756-133.207791 0-193.674841 2.532332-42.138938 10.08655-89.534624 17.591299-114.969338l-8.676385-1.99666z" stroke-width="40"/><path d="m442.940192 127.934166c2.218105 0 36.87521 3.371805 103.971314 10.115415" stroke-width="20"/></g></svg>