<?xml version="1.0" encoding="UTF-8" standalone="no"?>
<svg
   xmlns:dc="http://purl.org/dc/elements/1.1/"
   xmlns:cc="http://creativecommons.org/ns#"
   xmlns:rdf="http://www.w3.org/1999/02/22-rdf-syntax-ns#"
   xmlns:svg="http://www.w3.org/2000/svg"
   xmlns="http://www.w3.org/2000/svg"
   xmlns:sodipodi="http://sodipodi.sourceforge.net/DTD/sodipodi-0.dtd"
   xmlns:inkscape="http://www.inkscape.org/namespaces/inkscape"
   version="1.1"
   x="0px"
   y="0px"
   viewBox="0 0 100 125"
   style="enable-background:new 0 0 100 100;"
   xml:space="preserve"
   id="svg10"
   sodipodi:docname="icon.svg"
   inkscape:version="1.0.1 (3bc2e813f5, 2020-09-07)"><metadata
     id="metadata16"><rdf:RDF><cc:Work
         rdf:about=""><dc:format>image/svg+xml</dc:format><dc:type
           rdf:resource="http://purl.org/dc/dcmitype/StillImage" /></cc:Work></rdf:RDF></metadata><defs
     id="defs14" /><sodipodi:namedview
     pagecolor="#ffffff"
     bordercolor="#666666"
     borderopacity="1"
     objecttolerance="10"
     gridtolerance="10"
     guidetolerance="10"
     inkscape:pageopacity="0"
     inkscape:pageshadow="2"
     inkscape:window-width="1920"
     inkscape:window-height="1017"
     id="namedview12"
     showgrid="false"
     inkscape:zoom="6.8"
     inkscape:cx="50"
     inkscape:cy="62.5"
     inkscape:window-x="-8"
     inkscape:window-y="-8"
     inkscape:window-maximized="1"
     inkscape:current-layer="svg10" /><path
     d="M59.9,72.4h-6.4l1.8-9.5c0.2-0.9-0.3-1.7-1.1-2.1c-0.8-0.3-1.7-0.1-2.3,0.6L39.5,78.2c-0.4,0.6-0.5,1.3-0.2,2  c0.3,0.6,1,1,1.7,1h7.3l-2.6,9.3c-0.2,0.9,0.2,1.8,1,2.2c0.3,0.1,0.5,0.2,0.8,0.2c0.6,0,1.1-0.3,1.5-0.8l12.5-16.8  c0.4-0.6,0.5-1.3,0.2-2S60.6,72.4,59.9,72.4z M52,81.8l0.5-1.9c0.2-0.6,0-1.2-0.3-1.6s-0.9-0.7-1.5-0.7h-6l5.4-7.3L49.4,74  c-0.1,0.5,0,1.1,0.4,1.5c0.4,0.4,0.9,0.7,1.4,0.7h4.9L52,81.8z"
     id="path2" /><path
     d="M50,9.7c-23.1,0-42.3,20.2-42.8,45c0,0.5,0.2,1,0.5,1.3c0.4,0.4,0.8,0.6,1.3,0.6h32.1h17.7h32.1c0.5,0,1-0.2,1.3-0.6  s0.5-0.8,0.5-1.3C92.3,29.9,73.1,9.7,50,9.7z M43.3,52.9c0.8-3.2,3.5-5.6,6.7-5.6c3.2,0,5.9,2.4,6.7,5.6H43.3z M60.5,52.9  c-0.7-3.7-3.1-6.9-6.3-8.4l8.3-24.4c0.3-1-0.2-2-1.2-2.4c-1-0.3-2,0.2-2.4,1.2l-8.4,24.6c-0.2,0-0.4,0-0.6,0c-5.2,0-9.6,4-10.5,9.3  H11c0.3-5.1,1.5-10,3.4-14.5l6,3.5c0.3,0.2,0.6,0.3,0.9,0.3c0.6,0,1.3-0.3,1.6-0.9c0.5-0.9,0.2-2-0.7-2.6L16,35  c3.1-5.8,7.4-10.8,12.5-14.5l3.6,6.3c0.3,0.6,1,0.9,1.6,0.9c0.3,0,0.6-0.1,0.9-0.2c0.9-0.5,1.2-1.7,0.7-2.6l-3.7-6.5  c5-2.9,10.5-4.6,16.4-4.9v6.2c0,1,0.8,1.9,1.9,1.9c1,0,1.9-0.8,1.9-1.9v-6.2c6.3,0.3,12.1,2.3,17.3,5.5L65.8,25  c-0.5,0.9-0.2,2,0.7,2.6c0.3,0.2,0.6,0.2,0.9,0.2c0.7,0,1.3-0.3,1.6-0.9l3.3-5.7c4.9,3.7,9,8.7,12,14.4l-5.4,3.1  c-0.9,0.5-1.2,1.7-0.7,2.6c0.3,0.6,1,0.9,1.6,0.9c0.3,0,0.6-0.1,0.9-0.3l5-2.9c1.7,4.3,2.8,9,3.1,13.9H60.5z"
     id="path4" /></svg>
