<?xml version="1.0" encoding="UTF-8"?><svg version="1.1" width="960px" height="960px" viewBox="0 0 960.0 960.0" xmlns="http://www.w3.org/2000/svg" xmlns:xlink="http://www.w3.org/1999/xlink"><defs><clipPath id="i0"><path d="M960,0 L960,960 L0,960 L0,0 L960,0 Z"></path></clipPath><clipPath id="i1"><path d="M789.554469,59.5791206 L944.086355,359.245484 L944.724938,360.573673 C962.034206,396.960606 961.974458,429.828975 947.252266,455.987496 C935.848284,476.250193 915.697983,490.865111 898.163973,493.557138 L897.895486,493.595948 L178.246892,634.394365 C151.419276,639.645523 124.899325,624.019998 116.491711,598.008432 L3.19922579,247.509806 C-1.81563377,231.995085 -0.910041418,215.173187 5.74145111,200.286514 L16.5074857,176.188948 L14.2009902,168.498703 C13.2310914,165.265707 12.4998583,161.966338 12.0129852,158.627208 L11.8742597,157.624303 C6.92987294,119.838779 33.5528752,85.1993416 71.3383996,80.2549548 L677.518559,0.933859534 C723.490436,-5.08198276 768.299089,18.3730427 789.554469,59.5791206 Z M682.708677,40.5957137 L76.5283151,119.916835 C60.6474425,121.994911 49.4580648,136.553515 51.5361404,152.434388 C51.7386102,153.981683 52.0656391,155.510113 52.5140416,157.004788 L59.0929349,178.934432 L58.92,179.32 L146.882197,443.43652 L183.322186,552.580994 L184.184008,555.104894 C189.640511,569.915403 189.004601,583.408956 183.178769,592.67228 L891.408363,454.107397 L892.076478,454.022925 C893.390087,453.856843 896.75915,452.394971 900.320949,449.854494 C905.069552,446.467519 909.307526,441.852668 912.393814,436.368925 C920.495613,421.973577 920.525442,402.748397 908.562511,377.669845 L908.295486,377.115948 L754.004832,77.9155128 C740.478738,51.6935736 711.963711,36.7674238 682.708677,40.5957137 Z M46.842,206.35 L42.2617995,216.604116 C39.6415146,222.468563 39.2847661,229.095371 41.2603168,235.207231 L152.002932,577.819402 C155.196623,583.891932 160.030327,585.908886 163.577427,584.315261 C165.303128,583.539946 166.692304,581.852491 167.441543,579.070665 C168.523587,575.053172 168.074641,569.4551 165.610665,562.552536 L165.310258,561.716954 C165.001604,560.829253 164.15957,558.336992 162.781383,554.231866 L132.530393,463.627065 L46.842,206.35 Z M731.800577,395.561948 C732.15488,396.270555 732.4071,397.025745 732.549731,397.805046 C733.384488,402.365965 730.363837,406.740025 725.802918,407.574782 L370.687703,472.569344 C364.442518,473.712362 358.308282,470.085065 356.300577,464.061948 C356.156939,463.631034 356.044067,463.190468 355.962813,462.743571 C355.014453,457.527592 358.474042,452.530409 363.690021,451.582049 L715.800577,387.561948 C722.319095,386.376763 728.837614,389.636022 731.800577,395.561948 Z M658.936129,224.442744 L722.465652,363.854752 C722.81074,364.612029 723.05995,365.409421 723.2075,366.228435 C724.186714,371.663781 720.574305,376.863809 715.138959,377.843022 L353.084341,443.069572 C348.296913,443.932059 343.58334,441.224364 341.916615,436.654311 L286.982885,286.029568 C286.75648,285.40878 286.592163,284.76708 286.492344,284.113878 C285.658056,278.654409 289.407505,273.55231 294.866975,272.718021 L648.3258,218.704206 C652.74802,218.028424 657.081077,220.371934 658.936129,224.442744 Z M488.338889,270.452872 C485.87568,271.601739 484.171185,273.889657 483.834779,276.581712 L483.441592,279.53214 C482.293326,287.955853 481.194423,294.310973 480.266887,297.623992 L480.203913,297.845154 C478.445717,304.003099 476.23238,310.169107 474.082429,316.108372 L473.840494,316.798664 L473.137914,318.753627 C471.48175,323.384925 469.731767,328.485917 468.389109,333.6719 C466.092431,342.587983 465.565029,350.516889 466.767832,357.94866 C467.432379,361.920299 468.476765,365.496472 470.008772,368.817045 C473.424686,376.30108 479.001326,382.185793 486.574117,386.315557 C488.34745,387.284188 490.849858,388.271918 494.07632,389.25292 C496.105076,389.877072 498.178406,389.072017 499.223324,387.260743 C500.255886,385.509306 500.016334,383.382082 498.577668,381.87424 L498.412885,381.709301 C496.890741,380.236198 495.627468,378.712775 494.443429,376.905923 C491.489986,373.459609 489.461584,369.243825 488.588063,364.749951 C486.838555,355.749514 488.976069,349.607204 490.279995,346.487665 L490.628809,345.671786 C491.489069,343.601577 492.634087,341.476016 494.163964,338.980816 C494.665253,338.157641 495.357801,337.114586 496.080143,336.051686 L497.430029,334.084328 L498.202232,335.569192 L500.523389,339.985157 C504.768025,348.013919 506.716869,351.370506 507.994905,352.698028 L508.120533,352.824114 C508.696923,353.381869 509.139023,353.516925 509.611979,353.497902 L509.727845,353.490368 C509.857459,353.478933 509.990313,353.457814 510.129678,353.432332 L510.369905,353.386471 C512.379752,352.995796 513.172265,351.605067 513.204057,344.850363 L513.204915,344.249371 C513.199904,341.278206 513.062854,337.337185 512.827665,332.102325 L512.492916,325.088447 C512.401396,323.305859 512.322527,321.911317 512.284028,321.494425 L513.80465,322.478728 C516.053995,323.944706 519.041011,325.93286 520.969003,327.337796 C524.419017,329.883505 527.084735,332.126021 529.388032,334.438983 C537.135872,342.233494 539.905393,349.709161 540.854217,354.590439 C542.435591,362.725903 540.17375,370.991949 534.670868,377.234523 C534.181674,377.758455 533.912281,378.722112 533.996053,379.429501 C534.239686,381.097517 535.353442,382.542792 536.937097,383.226661 C537.814116,383.59224 538.744482,383.679422 539.650532,383.503304 C540.349485,383.367441 541.044204,383.071585 541.703781,382.594941 C553.820766,373.753384 559.90754,358.766843 557.612861,343.5065 C556.980007,339.42149 555.954612,335.251966 554.387944,330.785614 C552.964201,326.639916 551.131284,322.600556 548.935161,318.765809 C545.351831,312.493635 540.727208,306.531079 534.783913,300.55682 C529.531961,295.289227 523.56071,290.186439 515.989696,284.57524 L515.172354,283.972064 C510.156889,280.283302 501.934739,274.88602 495.937921,270.985973 C493.660815,269.498803 490.827985,269.298974 488.338889,270.452872 Z"></path></clipPath></defs><g clip-path="url(#i0)"><g transform="translate(1.1994233931765734 161.43805227686386)"><g clip-path="url(#i1)"><polygon points="0,0 958.01824,0 958.01824,635.406917 0,635.406917 0,0" stroke="none" fill="#000000"></polygon></g></g></g></svg>