<?xml version="1.0" encoding="UTF-8" standalone="no"?>
<svg
   xmlns:dc="http://purl.org/dc/elements/1.1/"
   xmlns:cc="http://creativecommons.org/ns#"
   xmlns:rdf="http://www.w3.org/1999/02/22-rdf-syntax-ns#"
   xmlns:svg="http://www.w3.org/2000/svg"
   xmlns="http://www.w3.org/2000/svg"
   xmlns:sodipodi="http://sodipodi.sourceforge.net/DTD/sodipodi-0.dtd"
   xmlns:inkscape="http://www.inkscape.org/namespaces/inkscape"
   viewBox="0 0 64 80"
   x="0px"
   y="0px"
   version="1.1"
   id="svg106"
   sodipodi:docname="icon.svg"
   inkscape:version="1.0.1 (3bc2e813f5, 2020-09-07)">
  <metadata
     id="metadata112">
    <rdf:RDF>
      <cc:Work
         rdf:about="">
        <dc:format>image/svg+xml</dc:format>
        <dc:type
           rdf:resource="http://purl.org/dc/dcmitype/StillImage" />
      </cc:Work>
    </rdf:RDF>
  </metadata>
  <defs
     id="defs110" />
  <sodipodi:namedview
     pagecolor="#ffffff"
     bordercolor="#666666"
     borderopacity="1"
     objecttolerance="10"
     gridtolerance="10"
     guidetolerance="10"
     inkscape:pageopacity="0"
     inkscape:pageshadow="2"
     inkscape:window-width="1920"
     inkscape:window-height="1017"
     id="namedview108"
     showgrid="false"
     inkscape:zoom="10.625"
     inkscape:cx="32"
     inkscape:cy="62.588235"
     inkscape:window-x="-8"
     inkscape:window-y="-8"
     inkscape:window-maximized="1"
     inkscape:current-layer="svg106" />
  <title
     id="title96">Thermostat</title>
  <g
     id="g100">
    <path
       d="M57,12H7a3.0033,3.0033,0,0,0-3,3V49a3.0033,3.0033,0,0,0,3,3H57a3.0033,3.0033,0,0,0,3-3V15A3.0033,3.0033,0,0,0,57,12Zm1,37a1.0009,1.0009,0,0,1-1,1H7a1.0009,1.0009,0,0,1-1-1V15a1.0009,1.0009,0,0,1,1-1H57a1.0009,1.0009,0,0,1,1,1ZM51.832,22.4453a1.0378,1.0378,0,0,0-1.664,0l-4,6A1,1,0,0,0,47,30h8a1,1,0,0,0,.832-1.5547ZM48.8682,28,51,24.8027,53.1318,28ZM55,34H47a1,1,0,0,0-.832,1.5547l4,6a1,1,0,0,0,1.664,0l4-6A1,1,0,0,0,55,34Zm-4,5.1973L48.8682,36h4.2636ZM43,16H9a1,1,0,0,0-1,1V39a1,1,0,0,0,1,1H43a1,1,0,0,0,1-1V17A1,1,0,0,0,43,16ZM42,38H10V18H42ZM19,42H9a1,1,0,0,0-1,1v4a1,1,0,0,0,1,1H19a1,1,0,0,0,1-1V43A1,1,0,0,0,19,42Zm-1,4H10V44h8Zm15-4H23a1,1,0,0,0-1,1v4a1,1,0,0,0,1,1H33a1,1,0,0,0,1-1V43A1,1,0,0,0,33,42Zm-1,4H24V44h8Zm11-4H37a1,1,0,0,0-1,1v4a1,1,0,0,0,1,1h6a1,1,0,0,0,1-1V43A1,1,0,0,0,43,42Zm-1,4H38V44h4ZM24,36h7a1,1,0,0,0,1-1V23a1,1,0,0,0-1-1H24a1,1,0,0,0-1,1V35A1,1,0,0,0,24,36Zm1-12h5V34H25ZM12,35V29a1,1,0,0,1,1-1h6V24H13a1,1,0,0,1,0-2h7a1,1,0,0,1,1,1v6a1,1,0,0,1-1,1H14v4h6a1,1,0,0,1,0,2H13A1,1,0,0,1,12,35Zm25-9a3,3,0,1,0-3-3A3.0033,3.0033,0,0,0,37,26Zm0-4a1,1,0,1,1-1,1A1.0009,1.0009,0,0,1,37,22Z"
       id="path98" />
  </g>
</svg>
