<?xml version="1.0" standalone="no"?>
<!DOCTYPE svg PUBLIC "-//W3C//DTD SVG 20010904//EN"
 "http://www.w3.org/TR/2001/REC-SVG-20010904/DTD/svg10.dtd">
<svg version="1.0" xmlns="http://www.w3.org/2000/svg"
 width="1024.000000pt" height="1024.000000pt" viewBox="0 0 1024.000000 1024.000000"
 preserveAspectRatio="xMidYMid meet">

<g transform="translate(0.000000,1024.000000) scale(0.100000,-0.100000)"
fill="#000000" stroke="none">
<path d="M0 5120 l0 -5120 5120 0 5120 0 0 5120 0 5120 -5120 0 -5120 0 0
-5120z m3660 3362 l0 -1568 -232 -163 c-127 -90 -238 -165 -245 -168 -11 -4
-13 290 -13 1654 0 913 3 1694 6 1736 l7 77 238 0 239 0 0 -1568z m843 1416
c4 -66 7 -626 7 -1244 l0 -1122 -197 -138 c-109 -76 -219 -153 -245 -172 l-48
-34 0 1416 0 1416 238 0 239 0 6 -122z m2562 -60 c3 -95 5 -688 3 -1318 l-3
-1145 -242 -3 -243 -2 0 1320 0 1320 239 0 239 0 7 -172z m-1715 -938 l0
-1100 -121 86 c-117 84 -121 85 -144 70 -14 -9 -66 -45 -117 -81 -50 -36 -95
-65 -100 -65 -10 0 -11 1783 -1 2023 l6 167 239 0 238 0 0 -1100z m890 -311
c0 -1117 -3 -1399 -12 -1393 -7 4 -120 79 -250 166 l-238 159 0 1234 0 1235
250 0 250 0 0 -1401z m-3450 -463 l0 -1823 -227 -159 c-124 -87 -232 -163
-240 -167 -11 -7 -13 327 -13 1983 l0 1990 240 0 240 0 0 -1824z m5140 -156
c0 -1595 -2 -1910 -13 -1903 -8 4 -116 75 -240 157 l-227 150 0 1753 0 1753
240 0 240 0 0 -1910z m-2222 -693 c339 -233 630 -432 645 -442 l28 -18 -3 170
-3 170 200 6 c110 4 278 7 373 7 l172 0 1 -67 c1 -38 5 -234 8 -437 l6 -369
890 -611 c826 -566 992 -683 925 -644 -14 8 -882 541 -1930 1183 -1048 643
-1913 1169 -1922 1169 -12 1 -1554 -1107 -3077 -2212 l-46 -33 355 1 c195 1
361 2 368 1 9 -1 12 -36 12 -138 0 -76 3 -209 7 -295 l6 -157 41 41 c23 23 70
55 106 72 58 27 75 31 155 31 76 0 99 -4 147 -27 107 -50 176 -149 203 -291 9
-48 14 -184 16 -407 l4 -335 -161 -3 -161 -2 -6 322 c-3 201 -10 338 -17 361
-6 22 -26 55 -44 74 -27 30 -41 36 -84 41 -66 6 -94 -2 -136 -38 -66 -59 -69
-75 -61 -437 l8 -321 -64 -7 c-35 -3 -109 -5 -164 -3 l-100 3 -6 435 c-3 239
-7 520 -8 623 l-1 188 -612 -7 c-550 -5 -611 -5 -593 9 101 77 3892 2816 3898
2817 4 0 285 -191 625 -423z m2636 -2317 c-197 -590 -322 -1149 -370 -1655
-19 -203 -14 -629 9 -760 8 -44 14 -81 12 -83 -1 -1 -50 61 -108 138 l-105
141 -36 -51 c-74 -103 -179 -153 -321 -153 -152 0 -264 61 -352 191 -60 89
-84 173 -90 309 -9 179 34 320 128 427 91 103 194 149 334 149 116 0 187 -26
257 -93 27 -26 51 -43 53 -36 2 6 11 52 20 101 67 361 243 863 412 1175 73
135 207 370 209 367 1 -1 -22 -76 -52 -167z m-1021 -215 c82 -21 133 -50 188
-105 93 -93 141 -228 143 -402 0 -59 -2 -109 -5 -112 -2 -3 -156 -9 -341 -13
l-336 -8 13 -39 c19 -54 70 -103 134 -127 75 -28 240 -28 356 0 44 11 82 18
84 16 5 -5 40 -175 41 -196 1 -41 -184 -82 -375 -82 -124 0 -149 3 -217 25
-227 75 -342 242 -342 498 0 272 138 475 369 541 75 22 212 24 288 4z m-1072
-22 c97 -43 158 -124 195 -258 13 -48 17 -131 21 -422 l6 -363 -157 0 c-118 0
-156 3 -157 13 -1 6 -4 156 -8 332 -7 342 -11 367 -63 422 -50 53 -145 48
-204 -11 -53 -53 -56 -83 -48 -436 l7 -317 -54 -6 c-30 -4 -102 -7 -161 -7
l-107 0 -3 333 c-3 331 -3 332 -28 381 -33 66 -69 91 -129 91 -61 0 -115 -39
-144 -104 -19 -44 -20 -59 -14 -373 l6 -328 -83 0 c-46 0 -117 -3 -158 -6
l-75 -7 -7 419 c-3 231 -9 467 -12 527 l-7 107 142 0 141 0 0 -39 c0 -21 3
-52 6 -68 l6 -30 50 54 c28 29 76 65 107 80 50 25 67 28 161 28 95 0 110 -3
156 -27 53 -28 108 -82 119 -117 9 -28 17 -26 43 8 38 51 113 105 181 128 83
30 201 28 272 -4z m-1942 -20 c144 -39 255 -130 315 -255 43 -91 56 -155 56
-266 0 -169 -46 -290 -149 -393 -208 -208 -585 -212 -788 -9 -95 95 -140 201
-149 353 -17 268 121 486 354 562 103 33 259 37 361 8z m2571 -1182 l0 -88
-66 -6 c-111 -11 -183 -67 -225 -177 -17 -46 -19 -79 -19 -380 l0 -331 -92 3
-93 3 -7 310 c-3 171 -8 403 -11 518 l-5 207 84 0 84 0 0 -49 c0 -26 3 -69 6
-95 l7 -47 29 53 c16 29 39 63 51 76 49 52 138 90 215 91 l42 1 0 -89z m-1048
49 c74 -23 144 -78 182 -143 47 -81 56 -144 62 -459 3 -161 9 -323 13 -360 l7
-68 -87 0 -87 0 -7 60 c-4 33 -9 60 -11 60 -3 0 -18 -16 -35 -35 -17 -19 -64
-51 -104 -71 -58 -29 -88 -37 -152 -41 -151 -10 -255 44 -314 162 -30 61 -31
70 -27 152 3 73 9 97 33 142 70 128 215 198 464 224 l113 11 -4 52 c-6 67 -36
122 -86 158 -73 52 -231 46 -357 -13 l-61 -28 -18 51 c-10 28 -21 56 -23 63
-6 16 84 61 171 83 99 26 244 26 328 0z m-694 -63 l3 -58 -243 -327 c-134
-180 -264 -352 -290 -384 -27 -31 -48 -59 -48 -61 0 -2 135 -1 300 1 l300 5 0
-75 0 -75 -107 -6 c-58 -4 -247 -7 -420 -7 l-313 0 0 56 0 56 216 292 c119
160 253 335 297 390 l80 98 -281 -7 -282 -8 0 82 0 81 358 3 c196 1 373 3 392
2 l35 0 3 -58z m-1401 29 c-3 -7 -89 -319 -192 -692 -236 -858 -216 -790 -225
-773 -4 8 -81 291 -171 631 -90 339 -165 615 -167 613 -1 -1 -16 -54 -31 -116
-47 -182 -211 -683 -229 -697 -11 -8 -42 -12 -91 -10 l-74 3 -162 515 -163
515 95 3 c53 1 97 1 99 0 6 -6 172 -614 200 -732 l28 -119 28 109 c26 102 200
681 219 732 8 20 15 22 87 22 l78 0 107 -332 c58 -183 115 -367 127 -408 12
-41 24 -82 27 -90 3 -8 15 35 28 95 20 93 130 512 181 693 l15 52 96 0 c77 0
94 -3 90 -14z m376 -3 c3 -10 7 -243 9 -518 l3 -500 -92 -3 -92 -3 -5 33 c-3
18 -7 252 -10 521 l-4 487 93 0 c81 0 94 -2 98 -17z m-7 -1102 c32 -20 64 -74
64 -110 0 -69 -63 -131 -133 -131 -101 0 -160 90 -119 183 32 71 121 99 188
58z m1664 -321 c942 -29 1763 -128 2620 -316 297 -65 853 -211 813 -213 -7 -1
-68 8 -135 19 -1491 240 -3354 323 -5028 224 -980 -57 -2042 -183 -2850 -338
-41 -8 -76 -13 -78 -11 -4 3 178 60 391 121 985 282 2060 454 3162 504 438 20
702 22 1105 10z"/>
<path d="M7429 3459 c-134 -21 -224 -128 -251 -303 -32 -209 58 -407 206 -451
140 -42 266 9 335 136 l36 64 0 170 c-1 156 -2 174 -24 222 -26 58 -91 124
-143 146 -45 19 -104 25 -159 16z"/>
<path d="M7123 4540 c-70 -17 -132 -90 -149 -178 l-6 -32 84 0 c47 0 133 3
193 7 l107 6 -6 45 c-15 110 -115 179 -223 152z"/>
<path d="M4064 4476 c-16 -7 -46 -32 -66 -55 -51 -60 -72 -141 -66 -268 3 -88
7 -107 36 -166 34 -69 78 -106 144 -121 46 -10 113 13 152 52 128 127 103 469
-39 549 -46 26 -113 30 -161 9z"/>
<path d="M5672 3045 c-124 -27 -201 -95 -210 -185 -7 -72 5 -115 41 -154 90
-95 276 -57 354 74 32 53 33 57 33 167 l0 113 -77 -1 c-43 0 -107 -7 -141 -14z"/>
</g>
</svg>
