<?xml version="1.0" standalone="no"?>
<!DOCTYPE svg PUBLIC "-//W3C//DTD SVG 20010904//EN"
 "http://www.w3.org/TR/2001/REC-SVG-20010904/DTD/svg10.dtd">
<svg version="1.0" xmlns="http://www.w3.org/2000/svg"
 width="1080.000000pt" height="1280.000000pt" viewBox="0 0 1080.000000 1280.000000"
 preserveAspectRatio="xMidYMid meet">
<metadata>
Created by potrace 1.15, written by Peter Selinger 2001-2017
</metadata>
<g transform="translate(0.000000,1280.000000) scale(0.100000,-0.100000)"
fill="#000000" stroke="none">
<path d="M4480 11170 l0 -1630 -427 0 c-236 0 -478 -5 -539 -10 -942 -83
-1768 -673 -2160 -1543 -131 -289 -224 -700 -224 -984 l0 -83 4272 0 4271 0
-6 138 c-30 657 -311 1273 -793 1742 -318 309 -701 530 -1121 646 -288 79
-446 94 -1005 94 l-428 0 0 1630 0 1630 -920 0 -920 0 0 -1630z"/>
<path d="M2118 6291 c-121 -40 -216 -125 -271 -241 -42 -88 -49 -206 -18 -308
78 -257 371 -379 615 -255 64 33 146 111 178 170 124 228 41 496 -188 610 -65
32 -84 36 -166 39 -72 3 -106 0 -150 -15z"/>
<path d="M3625 6296 c-214 -68 -352 -283 -315 -493 24 -142 109 -257 233 -318
271 -133 574 25 628 326 37 209 -92 415 -302 480 -70 22 -183 24 -244 5z"/>
<path d="M5263 6292 c-202 -72 -328 -278 -294 -479 60 -356 482 -497 736 -247
214 211 156 568 -113 701 -70 35 -83 38 -176 41 -79 2 -113 -2 -153 -16z"/>
<path d="M6920 6287 c-306 -104 -394 -494 -164 -724 248 -248 674 -109 734
240 21 118 -17 257 -96 354 -109 133 -307 187 -474 130z"/>
<path d="M8425 6293 c-226 -81 -348 -304 -290 -528 31 -119 115 -224 221 -278
193 -98 425 -45 551 127 62 84 87 173 81 288 -5 77 -11 100 -42 162 -46 94
-136 181 -222 215 -81 33 -227 39 -299 14z"/>
<path d="M1502 4642 c-177 -63 -294 -230 -293 -419 0 -97 19 -162 70 -241 127
-196 400 -251 602 -121 91 58 153 148 184 266 52 199 -49 405 -243 496 -59 28
-79 32 -167 34 -78 3 -112 -1 -153 -15z"/>
<path d="M9025 4643 c-161 -58 -267 -184 -297 -353 -27 -158 54 -341 191 -429
202 -130 475 -75 602 121 51 80 69 143 69 243 0 181 -94 328 -256 402 -78 35
-232 43 -309 16z"/>
<path d="M3383 4570 c-114 -23 -243 -122 -298 -229 -136 -269 22 -583 319
-634 179 -30 375 72 456 238 161 327 -121 695 -477 625z"/>
<path d="M7240 4569 c-120 -23 -249 -126 -303 -242 -125 -263 37 -570 327
-620 280 -48 541 210 496 489 -20 121 -55 189 -139 267 -102 95 -240 134 -381
106z"/>
<path d="M5297 4489 c-63 -15 -138 -59 -199 -117 -167 -159 -179 -423 -27
-596 89 -101 193 -148 329 -148 334 0 540 346 383 644 -90 171 -294 262 -486
217z"/>
<path d="M9681 3009 c-130 -25 -249 -117 -308 -237 -34 -68 -38 -84 -41 -172
-3 -75 0 -111 13 -152 40 -121 116 -208 234 -266 72 -36 78 -37 180 -36 126 0
185 19 272 88 63 49 109 113 140 195 32 80 31 213 -1 296 -80 209 -280 325
-489 284z"/>
<path d="M903 2992 c-157 -56 -267 -189 -295 -356 -27 -165 63 -351 213 -439
69 -41 161 -60 253 -54 195 13 360 167 397 370 34 184 -69 375 -248 460 -60
28 -79 32 -168 35 -77 2 -112 -2 -152 -16z"/>
<path d="M3062 2822 c-247 -89 -366 -374 -252 -607 39 -80 78 -125 150 -174
84 -56 154 -74 265 -69 75 3 101 9 155 34 135 64 227 187 252 337 31 188 -70
376 -249 459 -58 27 -79 32 -167 35 -80 3 -112 0 -154 -15z"/>
<path d="M7493 2831 c-211 -54 -360 -278 -325 -490 25 -148 118 -271 252 -335
90 -42 217 -49 314 -16 132 44 245 158 282 288 19 63 20 181 4 243 -33 122
-121 227 -238 282 -58 27 -79 32 -162 34 -52 1 -109 -2 -127 -6z"/>
<path d="M5305 2676 c-222 -54 -372 -276 -335 -496 24 -146 114 -264 249 -329
72 -34 81 -36 181 -36 100 0 109 2 181 36 93 45 166 116 208 201 125 259 -14
557 -290 623 -75 17 -126 18 -194 1z"/>
<path d="M350 1356 c-80 -17 -144 -51 -209 -111 -266 -247 -132 -685 229 -747
323 -55 590 275 476 590 -48 133 -184 244 -330 271 -72 13 -95 13 -166 -3z"/>
<path d="M10265 1357 c-398 -102 -457 -643 -90 -823 296 -144 650 97 622 426
-19 226 -191 395 -412 406 -38 2 -92 -2 -120 -9z"/>
<path d="M2808 1091 c-163 -52 -281 -191 -307 -361 -29 -180 76 -375 242 -454
171 -80 358 -47 493 88 114 115 158 270 119 421 -61 235 -319 379 -547 306z"/>
<path d="M7760 1096 c-216 -58 -357 -273 -321 -488 16 -99 54 -172 125 -244
136 -135 326 -168 494 -86 170 83 271 275 242 459 -41 257 -295 426 -540 359z"/>
<path d="M5333 870 c-29 -4 -81 -21 -117 -38 -173 -81 -278 -276 -247 -459 51
-303 373 -463 640 -317 159 86 252 276 221 451 -41 239 -259 398 -497 363z"/>
</g>
</svg>
