<?xml version="1.0" encoding="utf-8"?>
<!-- Generator: Adobe Illustrator 24.1.1, SVG Export Plug-In . SVG Version: 6.00 Build 0)  -->
<svg version="1.1" id="Layer_1" xmlns="http://www.w3.org/2000/svg" xmlns:xlink="http://www.w3.org/1999/xlink" x="0px" y="0px"
	 viewBox="0 0 512 512" style="enable-background:new 0 0 512 512;" xml:space="preserve">
<style type="text/css">
	.st0{fill-rule:evenodd;clip-rule:evenodd;}
</style>
<g>
	<path class="st0" d="M374.1,78.8c10.9,0,19.7,8.8,19.7,19.7v354.4c0,10.9-8.8,19.7-19.7,19.7c-10.9,0-19.7-8.8-19.7-19.7V98.5
		C354.5,87.6,363.3,78.8,374.1,78.8z"/>
	<path class="st0" d="M360.2,45.1c7.7-7.7,20.1-7.7,27.8,0l0,0l118.1,118.1c7.7,7.7,7.7,20.2,0,27.9c-7.7,7.7-20.2,7.7-27.9,0
		L374.1,86.9L269.9,191.2c-7.7,7.7-20.2,7.7-27.9,0c-7.7-7.7-7.7-20.2,0-27.9L360.2,45.1z M5.8,320.8c7.7-7.7,20.1-7.7,27.8,0l0,0
		l104.2,104.2l104.2-104.2c7.7-7.7,20.2-7.7,27.9,0c7.7,7.7,7.7,20.2,0,27.9L151.8,466.9c-7.7,7.7-20.2,7.7-27.8,0l0,0L5.8,348.7
		C-1.9,341-1.9,328.6,5.8,320.8L5.8,320.8z"/>
	<path class="st0" d="M137.9,39.4c10.9,0,19.7,8.8,19.7,19.7v354.4c0,10.9-8.8,19.7-19.7,19.7c-10.9,0-19.7-8.8-19.7-19.7V59.1
		C118.2,48.2,127,39.4,137.9,39.4z"/>
</g>
</svg>
