<?xml version="1.0" encoding="UTF-8"?><svg version="1.1" width="960px" height="960px" viewBox="0 0 960.0 960.0" xmlns="http://www.w3.org/2000/svg" xmlns:xlink="http://www.w3.org/1999/xlink"><defs><clipPath id="i0"><path d="M960,0 L960,960 L0,960 L0,0 L960,0 Z"></path></clipPath><clipPath id="i1"><path d="M494.548064,26.4024679 C519.921928,32.156077 538.179457,54.3613818 538.920269,80.377632 L539.053938,85.2192356 L539.176137,89.9347795 L539.290537,94.6397162 C541.115781,172.163713 540.81992,282.846512 538.412303,426.773317 L537.992022,450.851226 L537.725316,465.323279 C534.80045,620.565112 530.246841,752.050559 524.058554,859.804231 L523.657729,866.711417 C522.349981,889.030851 505.183334,907.177852 482.969029,909.722384 L113.285859,952.032796 C101.366761,953.396943 89.38632,950.050654 79.8992804,942.707502 L27.6917938,902.2979 C17.0232263,894.035411 10.5194247,881.505919 9.90322287,868.025745 C4.08825822,740.764197 0.827564147,607.257878 0.120339792,467.505228 L0.0755999378,457.807453 C-0.468243909,325.596122 1.92204564,202.059827 7.24830764,87.194656 L7.58860693,79.9515431 C8.72379683,56.0839524 25.4099204,35.8001685 48.6349815,30.0786596 L50.4942769,29.6230809 C105.655404,16.1665445 167.799015,6.86557818 236.944236,1.68928937 L239.186467,1.52584494 C313.291089,-3.73055816 398.386927,4.60167408 494.548064,26.4024679 Z M302.39491,59.736701 C235.489028,62.6739622 174.55506,73.0122808 119.578564,90.7276567 C111.485961,93.3351928 105.926527,100.774214 105.718271,109.273369 C102.933283,223.221384 102.192624,338.686559 103.496374,455.668893 L103.708153,473.838595 L103.839346,484.390414 C105.294319,598.878938 108.075089,738.049552 112.181658,901.89548 C112.186567,902.088941 112.197617,902.281691 112.214779,902.473436 C112.657885,907.424206 117.030477,911.078377 121.981082,910.635268 L127.653911,910.126542 L478.418853,869.982028 C481.235894,869.65935 483.430726,867.412932 483.707288,864.612254 L483.726265,864.37087 L484.117042,857.638108 L484.495831,850.978672 C490.64898,741.712095 495.149114,608.151969 497.995123,450.324482 L498.412677,426.124622 L498.633995,412.643887 C500.951389,268.421959 501.072742,158.811618 499.003589,83.9101715 L498.936228,81.5073934 C498.715358,73.7507792 493.27013,67.1281445 485.703271,65.4123337 C481.562547,64.4735857 477.444465,63.5609108 473.349035,62.6742985 C421.392937,57.9966329 364.405505,57.0143496 302.39491,59.736701 Z M239.930325,41.5776745 L235.316991,41.9301486 C170.120098,47.0124387 111.667021,55.873041 59.9941223,68.4786148 L58.1788347,68.923405 C52.1637812,70.4052215 47.8377492,75.6639802 47.5434073,81.8525761 L47.2051817,89.0516149 L46.8712381,96.3507405 C41.8115044,208.451794 39.5455916,328.884698 40.0752704,457.645059 L40.1198204,467.301383 L40.182567,478.584313 C40.9797191,610.0583 44.0556669,735.925175 49.4097172,856.18331 L49.8615141,866.199556 C49.9419178,867.958487 50.7909729,869.594181 52.179734,870.669736 L92.1679324,901.621931 L91.2746625,865.469458 L90.4664523,831.891003 C86.9751733,684.822509 84.6522104,559.490624 83.4976164,455.891776 C82.191239,338.67377 82.9334199,222.971412 85.7242568,108.784076 C86.1407986,91.7845378 97.2596585,76.9065072 113.44466,71.6915009 C168.242196,54.0337923 228.589073,43.5081476 294.472302,40.0931133 L292.574559,40.0599881 C274.357811,39.8090055 256.809406,40.3140876 239.930325,41.5776745 Z M338.457993,823.501212 C343.979999,823.597599 348.378333,828.152207 348.281946,833.674213 C348.185559,839.19622 343.630951,843.594553 338.108945,843.498166 C331.223538,843.377981 322.369634,843.862775 311.599903,844.964545 C301.05239,846.043581 291.847464,847.759858 283.998668,850.090107 C278.704233,851.661985 273.137986,848.644256 271.566108,843.349821 C269.99423,838.055386 273.011958,832.489139 278.306393,830.917261 C287.112051,828.302927 297.124659,826.402522 308.35641,825.195104 L309.564477,825.068388 L311.634761,824.861634 C322.2239,823.830447 331.150423,823.373658 338.457993,823.501212 Z M350.891282,788.714449 C356.41413,788.71379 360.892475,793.190408 360.892475,798.713256 C360.892475,804.236103 356.416516,808.71379 350.893669,808.714449 L348.104037,808.718092 L344.496015,808.733222 C330.023625,808.81893 318.742285,809.19754 310.710438,809.859894 L309.743191,809.942417 C300.536749,810.755015 286.403855,812.803209 267.453813,816.08312 C262.011877,817.025022 256.836754,813.377023 255.894853,807.935087 C254.952952,802.493151 258.600951,797.318028 264.042886,796.376127 L267.807184,795.729906 L272.337179,794.96745 C287.408264,792.460689 299.106278,790.826879 307.4951,790.063755 L307.984744,790.01987 C317.876704,789.146764 332.146576,788.716686 350.891282,788.714449 Z M360.986326,220.438134 C365.956132,220.524882 369.914632,224.624029 369.829283,229.593835 L368.587849,300.635365 C368.505934,305.328264 364.831295,309.170281 360.146694,309.461011 L176.501623,320.858152 C176.395305,320.86475 176.288877,320.86946 176.182392,320.87228 C171.213571,321.003857 167.078881,317.082497 166.947303,312.113676 L165.015469,239.161026 C164.886142,234.277226 168.676683,230.182116 173.555909,229.934363 L360.372849,220.448343 C360.577166,220.437969 360.781777,220.434563 360.986326,220.438134 Z M428.050828,245.976863 C435.505537,246.106986 441.431566,252.927177 441.286986,261.210186 C441.142405,269.493196 434.981964,276.102417 427.527256,275.972294 C420.072547,275.842172 414.146518,269.021981 414.291098,260.738971 C414.435678,252.455962 420.596119,245.846741 428.050828,245.976863 Z"></path></clipPath></defs><g clip-path="url(#i0)"><g transform="translate(210.0 -1.0)"><g clip-path="url(#i1)"><polygon points="0,1 540.469271,1 540.469271,952.331293 0,952.331293 0,1" stroke="none" fill="#000000"></polygon></g></g></g></svg>