<?xml version="1.0" encoding="UTF-8"?>
<svg width="960px" height="960px" viewBox="0 0 960 960" version="1.1" xmlns="http://www.w3.org/2000/svg" xmlns:xlink="http://www.w3.org/1999/xlink">
    <title>temperature</title>
    <g id="temperature" stroke="none" stroke-width="1" fill="none" fill-rule="evenodd">
        <path d="M524.983867,11.0361575 C571.612042,11.3937034 621.883167,22.432633 675.805911,43.9864837 C707.328189,56.5859786 728,87.1115096 728,121.058366 L728,821.80445 C728,862.287283 698.794611,896.864423 658.882021,903.635309 L406.641108,946.426178 C382.205065,950.571578 357.084892,947.048797 334.731705,936.341808 L267.080494,903.937446 C246.253371,893.96143 233,872.917865 233,849.824794 L233,124.831567 C233,102.032451 245.921665,81.20325 266.348028,71.0758936 L348.617999,30.2865803 C360.547464,24.3744065 373.375911,20.4874984 386.57825,18.7858493 C429.61087,13.2377533 475.744797,10.6585912 524.983867,11.0361575 Z M391.692287,58.4575852 C388.416857,58.8797553 385.175893,59.503668 381.987552,60.3237747 C364.443214,66.2490315 352.094156,82.8199987 352.094156,102.007186 L352.094156,862.591165 C352.094156,886.891694 371.793627,906.591165 396.094156,906.591165 C398.405701,906.591165 400.713653,906.409009 402.996578,906.046389 L442.456,899.778 L652.19189,864.19875 C672.869497,860.690942 688,842.777484 688,821.80445 L688,121.058143 C688,103.471136 677.29056,87.6567821 660.959594,81.1292739 C611.420763,61.3277491 565.990308,51.3517718 524.677155,51.0349816 C477.195512,50.6708912 432.865698,53.1491926 391.692287,58.4575852 Z M335.473768,81.450501 L284.116009,106.913009 C277.307222,110.288794 273,117.231862 273,124.831567 L273,849.824794 C273,857.522484 277.41779,864.537006 284.360165,867.862344 L340.848467,894.921229 C335.28419,885.433474 332.094156,874.384855 332.094156,862.591165 L332.094156,102.007186 C332.094156,94.8378443 333.279495,87.9196234 335.473768,81.450501 Z M571.57523,830.462173 C575.717001,830.517076 579.030063,833.919152 578.975161,838.060924 C578.920258,842.202696 575.518181,845.515758 571.376409,845.460855 C564.690916,845.372233 558.027256,845.906484 551.379507,847.064624 C544.607625,848.24439 536.066884,850.381431 525.798004,853.477215 C521.832168,854.672804 517.648006,852.427076 516.452417,848.461241 C515.256827,844.495405 517.502555,840.311243 521.46839,839.115653 L523.413414,838.534424 C533.36589,835.587177 541.818518,833.504365 548.805053,832.287203 C556.366464,830.969889 563.958497,830.361207 571.57523,830.462173 Z M590.403404,803.015981 C590.547963,807.155593 587.309332,810.6286 583.169719,810.773158 C571.856856,811.168212 560.645234,811.978434 549.534472,813.203723 C538.842626,814.382814 527.050594,817.234646 514.173173,821.778197 C510.267044,823.1564 505.983247,821.107111 504.605044,817.200982 C503.226841,813.294853 505.27613,809.011055 509.18226,807.632853 C523.089257,802.726035 535.986988,799.606796 547.890248,798.294111 C559.374593,797.027624 570.960047,796.190386 582.646227,795.782296 C586.785839,795.637737 590.258846,798.876368 590.403404,803.015981 Z M418,189.449174 C418.315517,189.449174 418.630979,189.45747 418.946059,189.474053 L595.788382,198.781544 C603.755253,199.200853 610,205.782914 610,213.760811 L610,287.197867 C610,295.267233 603.616152,301.890606 595.552257,302.187697 L418.662708,308.704681 C408.728323,309.070684 400.378207,301.313978 400.012204,291.379593 C400.004069,291.158783 400,290.937843 400,290.716884 L400,207.449174 C400,197.508048 408.058875,189.449174 418,189.449174 Z M649.5,230.085258 C656.403559,230.085258 662,237.47256 662,246.585258 C662,255.697957 656.403559,263.085258 649.5,263.085258 C642.596441,263.085258 637,255.697957 637,246.585258 C637,237.47256 642.596441,230.085258 649.5,230.085258 Z" id="Shape" fill="#000000" fill-rule="nonzero"/>
    </g>
</svg>